<svg width="54" height="54" fill="none" xmlns="http://www.w3.org/2000/svg"><path d="M3.621 47l6.753 6.752c.05.05.11.076.166.11.036.022.066.053.106.07a.835.835 0 0 0 .324.067h38.813a.843.843 0 0 0 .844-.845V24.473a.837.837 0 0 0-.248-.597l-6.52-6.518V2.533A2.535 2.535 0 0 0 41.326 0H12.644a2.535 2.535 0 0 0-2.53 2.532v14.344H4.216a.846.846 0 0 0-.843.84v28.686a.835.835 0 0 0 .248.597zm38.55-41.936V23.63H14.33V5.064h27.84zM12.644 23.63h-.843V5.064h.843V23.63zm-2.516 1.195V51.12l-5.067-5.066V19.758l5.067 5.066zM48.94 52.31H11.816V25.317h37.123V52.31zm-1.193-28.682h-3.888v-3.886l3.888 3.886zM12.644 1.69h28.683c.466 0 .844.378.844.844v.844H11.802v-.844a.844.844 0 0 1 .842-.845zm-2.53 20.734l-3.86-3.858h3.86v3.858z" fill="#5683FF"/><path d="M14.358 2.533a.844.844 0 0 0-.844-.844h-.009a.84.84 0 0 0-.839.844c0 .466.382.844.848.844a.845.845 0 0 0 .844-.844zm2.532 0a.844.844 0 0 0-.844-.844h-.01a.84.84 0 0 0-.838.844c0 .466.381.844.848.844a.845.845 0 0 0 .843-.844zm2.53 0a.844.844 0 0 0-.843-.844h-.01a.84.84 0 0 0-.838.844.847.847 0 0 0 1.692 0zM16.863 8.44h19.412a.844.844 0 1 0 0-1.688H16.863a.844.844 0 1 0 0 1.687zm16.88 2.53a.844.844 0 0 0-.843-.843H18.55a.844.844 0 1 0 0 1.687H32.9a.844.844 0 0 0 .843-.844zm2.532-.843a.844.844 0 1 0 0 1.687h.843a.844.844 0 1 0 0-1.687h-.843zm-16.881 7.59c0 .466.378.844.844.844h18.568a.844.844 0 1 0 0-1.688H20.238a.844.844 0 0 0-.844.844zm.844-4.22a.844.844 0 1 0 0 1.687h6.743a.844.844 0 1 0 0-1.687h-6.743zm14.349 6.75H20.238a.844.844 0 1 0 0 1.687h14.349a.844.844 0 1 0 0-1.687zm-4.227 29.53c6.048 0 10.968-4.92 10.968-10.969 0-6.048-4.92-10.968-10.968-10.968s-10.97 4.92-10.97 10.968 4.92 10.97 10.969 10.97zm0-20.25c5.117 0 9.281 4.164 9.281 9.281 0 5.118-4.164 9.282-9.281 9.282-5.117 0-9.281-4.164-9.281-9.282 0-5.117 4.163-9.28 9.28-9.28z" fill="#5683FF"/><path d="M26.143 42.184a.843.843 0 0 0 .596-1.44l-1.934-1.935 1.934-1.935a.843.843 0 1 0-1.193-1.194l-2.531 2.533a.843.843 0 0 0 0 1.193l2.531 2.53a.844.844 0 0 0 .597.248zm7.847-.247a.841.841 0 0 0 1.194 0l2.53-2.531a.843.843 0 0 0 0-1.193l-2.53-2.532a.843.843 0 1 0-1.194 1.193l1.935 1.935-1.934 1.935a.844.844 0 0 0 0 1.193zm-5.627 1.876a.844.844 0 0 0 1.097-.47l3.376-8.441a.844.844 0 0 0-1.567-.626l-3.377 8.44a.846.846 0 0 0 .47 1.097z" fill="#5683FF"/></svg>