<svg width="54" height="54" fill="none" xmlns="http://www.w3.org/2000/svg"><path d="M50.182.547A1.691 1.691 0 0 0 48.937 0H5.062c-.473 0-.925.2-1.245.547a1.701 1.701 0 0 0-.436 1.286l3.996 45.562a1.686 1.686 0 0 0 1.222 1.478l17.941 5.063a1.75 1.75 0 0 0 .918.003l17.935-5.059a1.694 1.694 0 0 0 1.222-1.478l4.003-45.566a1.678 1.678 0 0 0-.436-1.29zm-6.824 45.397L27 50.557 10.637 45.94 6.905 3.376h40.19l-3.737 42.569z" fill="#5683FF"/><path d="M40.044 10.658a1.68 1.68 0 0 0-1.232-.533H15.187a1.688 1.688 0 0 0 0 3.375H37.01l-1.495 22.383L27 38.721l-8.438-2.811v-2.16a1.688 1.688 0 0 0-3.375 0v3.375c0 .726.466 1.37 1.154 1.603l10.125 3.375a1.7 1.7 0 0 0 1.066-.003l10.126-3.375a1.686 1.686 0 0 0 1.15-1.489l1.688-25.312a1.7 1.7 0 0 0-.452-1.266z" fill="#5683FF"/><path d="M37.9 23.625H15.593a1.688 1.688 0 0 0 0 3.375h22.309a1.688 1.688 0 0 0 0-3.375z" fill="#5683FF"/></svg>