<svg width="54" height="54" fill="none" xmlns="http://www.w3.org/2000/svg"><path d="M29.514 3.373H2.536a2.534 2.534 0 0 0-2.53 2.532v43.878c0 .466.376.844.843.844h30.353a.843.843 0 0 0 .844-.844V5.905a2.534 2.534 0 0 0-2.532-2.532zM1.693 8.436h28.665v40.503H1.693V8.436zm.843-3.375h.86a.84.84 0 0 0-.838.844.847.847 0 0 0 1.692 0 .844.844 0 0 0-.844-.844h2.52a.84.84 0 0 0-.838.844.847.847 0 0 0 1.692 0 .844.844 0 0 0-.844-.844H8.46a.84.84 0 0 0-.839.844.847.847 0 0 0 1.692 0 .844.844 0 0 0-.844-.844h21.044c.466 0 .844.378.844.844v.843H1.693v-.843c0-.466.378-.844.843-.844z" fill="#5683FF"/><path d="M4.21 34.59c0 .467.377.844.844.844h21.93a.843.843 0 0 0 .843-.844V24.47a.843.843 0 0 0-.844-.844H5.054a.843.843 0 0 0-.844.844v3.027l-1.442 1.441a.841.841 0 0 0 0 1.193l1.442 1.44v3.02zm1.44-6.148a.842.842 0 0 0 .248-.597v-2.532h20.241v8.434H5.898V31.22a.84.84 0 0 0-.247-.596l-1.092-1.091 1.092-1.092z" fill="#5683FF"/><path d="M8.43 29.108h15.178a.843.843 0 1 0 0-1.688H8.43a.843.843 0 1 0 0 1.688zm0 2.531h7.588a.843.843 0 1 0 0-1.688H8.429a.843.843 0 1 0 0 1.688zm20.838-16.2l-1.442-1.441V10.97a.843.843 0 0 0-.844-.844H5.054a.843.843 0 0 0-.844.843v10.122c0 .467.377.844.844.844h21.928a.843.843 0 0 0 .843-.844v-3.02l1.442-1.44a.842.842 0 0 0 .001-1.193zm-2.883 1.688a.842.842 0 0 0-.247.596v2.525H5.898v-8.434h20.24v2.533a.84.84 0 0 0 .247.597l1.092 1.091-1.092 1.091z" fill="#5683FF"/><path d="M23.608 13.922H8.43a.843.843 0 1 0 0 1.687h15.18a.843.843 0 1 0 0-1.687zm-7.59 2.531H8.429a.843.843 0 1 0 0 1.688h7.589a.843.843 0 1 0 0-1.688zM5.01 44.717h21.938a.843.843 0 0 0 .843-.839l.037-5.907a.844.844 0 0 0-.844-.849H5.044a.844.844 0 0 0-.843.839l-.035 5.907a.844.844 0 0 0 .844.849zm.873-5.907h20.252l-.026 4.22H5.859l.024-4.22zm8.438 6.755H5.046a.843.843 0 1 0 0 1.688h9.274a.843.843 0 1 0 .001-1.688zm12.683 0h-.01a.84.84 0 0 0-.838.844.847.847 0 0 0 1.692 0 .843.843 0 0 0-.844-.844zm-2.531 0h-.01a.84.84 0 0 0-.838.844.847.847 0 0 0 1.692 0 .843.843 0 0 0-.844-.844zm20.241-15.149v-2.73a2.527 2.527 0 0 0 1.69-2.378 2.534 2.534 0 0 0-2.53-2.53 2.534 2.534 0 0 0-2.532 2.53c0 1.098.706 2.024 1.684 2.375v2.733c-5.189.432-9.281 4.784-9.281 10.082v9.282c0 .466.377.843.844.843h18.56a.843.843 0 0 0 .844-.843l.002-9.282c0-5.297-4.091-9.65-9.281-10.082zm-.84-5.952a.844.844 0 1 1-.001 1.688.844.844 0 0 1 0-1.688zM39.655 48.09h1.686v.846h-1.686v-.846zm5.061 0v.846H43.03v-.846h1.687zm3.373 0v.846h-1.685v-.846h1.685zm4.216.846h-2.528v-1.69a.843.843 0 0 0-.844-.843h-10.12a.843.843 0 0 0-.844.844v1.689h-2.537v-8.438c0-4.652 3.785-8.437 8.438-8.437 4.652 0 8.437 3.785 8.437 8.437l-.001 8.438z" fill="#5683FF"/><path d="M45.56 40.497a2.534 2.534 0 0 0 2.532 2.532 2.534 2.534 0 0 0 2.531-2.532 2.534 2.534 0 0 0-2.53-2.53 2.534 2.534 0 0 0-2.532 2.53zm3.376 0a.844.844 0 1 1-1.688 0 .844.844 0 0 1 1.688 0zm-9.281-2.531a2.534 2.534 0 0 0-2.532 2.531 2.534 2.534 0 0 0 2.532 2.532 2.534 2.534 0 0 0 2.53-2.532 2.534 2.534 0 0 0-2.53-2.53zm0 3.375a.844.844 0 1 1 0-1.688.844.844 0 0 1 0 1.688zm6.148-26.403a.841.841 0 0 0 1.193 0l1.678-1.68.008-.004a.843.843 0 0 0 0-1.196l-.008-.005-1.678-1.68a.843.843 0 1 0-1.193 1.193l1.088 1.09-1.088 1.089a.844.844 0 0 0 0 1.193zm-5.061.002a.842.842 0 0 0 1.193 0 .843.843 0 0 0 0-1.194l-1.09-1.09 1.09-1.09a.843.843 0 1 0-1.193-1.193l-1.68 1.68-.007.006a.843.843 0 0 0 0 1.196c.002.002.005.002.007.005l1.68 1.68zm2.08 1.912a.845.845 0 0 0 1.023-.614l1.686-6.752a.843.843 0 1 0-1.637-.408l-1.687 6.752a.844.844 0 0 0 .615 1.022z" fill="#5683FF"/><path d="M43.87 21.094c4.652 0 8.437-3.785 8.437-8.438 0-4.652-3.785-8.437-8.437-8.437-4.652 0-8.438 3.785-8.438 8.437 0 4.653 3.785 8.438 8.438 8.438zm0-15.188a6.758 6.758 0 0 1 6.75 6.75 6.758 6.758 0 0 1-6.75 6.75 6.758 6.758 0 0 1-6.75-6.75 6.758 6.758 0 0 1 6.75-6.75z" fill="#5683FF"/></svg>