<svg width="54" height="54" fill="none" xmlns="http://www.w3.org/2000/svg"><path d="M6.753 16.03h16.033a.843.843 0 1 0 0-1.688H6.753a.843.843 0 1 0 0 1.687zm18.565 1.687H8.44a.843.843 0 1 0 0 1.688h16.877a.843.843 0 1 0 0-1.688zM20.257 37.98H8.44a.843.843 0 1 0 0 1.688h11.816a.843.843 0 1 0 0-1.688zm8.436-18.576h1.687a.843.843 0 1 0 0-1.687h-1.687a.843.843 0 1 0 0 1.688zM11.816 41.346H6.753a.843.843 0 1 0 0 1.687h5.063a.843.843 0 1 0 0-1.688zM29.541 25.31c0 .467.378.845.844.845h19.408a.843.843 0 1 0 0-1.688H30.385a.843.843 0 0 0-.844.844zm13.504 4.22a.843.843 0 1 0 0-1.688h-10.97a.843.843 0 1 0 0 1.688h10.97zm1.68 1.687h-8.433a.843.843 0 1 0 0 1.688h8.433a.843.843 0 1 0 0-1.688zm-11.808 0h-2.532a.843.843 0 1 0 0 1.688h2.532a.843.843 0 1 0 0-1.688z" fill="#5683FF"/><path d="M53.156 21.092h-9.308v-9.204c.002-.026.015-.048.015-.074 0-.026-.013-.048-.015-.073v-1.614a2.534 2.534 0 0 0-2.531-2.532H2.53A2.534 2.534 0 0 0 0 10.127v1.687c0 .026.013.048.015.074v33.671c0 .467.377.844.844.844h2.508l.008.002.008-.002H43.02a.843.843 0 0 0 .844-.844v-9.273h9.293a.843.843 0 0 0 .844-.843V21.936a.843.843 0 0 0-.844-.844zM2.531 9.283h.86a.84.84 0 0 0-.838.844.847.847 0 0 0 1.692 0 .844.844 0 0 0-.844-.844h2.522a.84.84 0 0 0-.839.844.847.847 0 0 0 1.692 0 .844.844 0 0 0-.844-.844h2.522a.84.84 0 0 0-.838.844.847.847 0 0 0 1.691 0 .844.844 0 0 0-.843-.844h32.854c.465 0 .843.378.843.844v.843H1.688v-.843c0-.466.378-.844.843-.844zm-.828 3.375h.828v32.057h-.828V12.658zm40.472 32.057H4.219V12.658H42.16v8.434H27.008a.843.843 0 0 0-.844.844v13.507c0 .466.377.843.844.843h15.169v8.43h-.001zM52.313 34.6H27.85V22.78h24.462V34.6z" fill="#5683FF"/><path d="M10.154 22.78a.843.843 0 1 0 0-1.688h-.01a.84.84 0 0 0-.838.844c0 .466.381.843.848.843zm0 3.373a.843.843 0 1 0 0-1.688h-.01a.84.84 0 0 0-.838.844c0 .467.381.844.848.844zm0 3.373a.843.843 0 1 0 0-1.687h-.01a.84.84 0 0 0-.838.843c0 .467.381.844.848.844zm0 3.374a.843.843 0 1 0 0-1.688h-.01a.84.84 0 0 0-.838.844c0 .466.381.843.848.843zm3.375-10.12a.843.843 0 1 0 0-1.688h-.01a.84.84 0 0 0-.838.844c0 .466.381.843.848.843zm3.375 0a.843.843 0 1 0 0-1.688h-.01a.84.84 0 0 0-.838.844c0 .466.381.843.848.843zm3.375-1.688h-.01a.84.84 0 0 0-.838.844.847.847 0 0 0 1.691 0 .844.844 0 0 0-.843-.844zm3.375 0h-.01a.84.84 0 0 0-.838.844.847.847 0 0 0 1.691 0 .844.844 0 0 0-.843-.844zm-13.5 15.201a.844.844 0 1 0 0-1.688h-.01a.84.84 0 0 0-.838.844c0 .467.381.844.848.844zm3.375 0a.844.844 0 1 0 0-1.688h-.01a.84.84 0 0 0-.838.844c0 .467.381.844.848.844zm3.375-1.688h-.01a.84.84 0 0 0-.838.844.847.847 0 0 0 1.691 0 .843.843 0 0 0-.843-.843zm3.375 0h-.01a.84.84 0 0 0-.838.844.847.847 0 0 0 1.691 0 .843.843 0 0 0-.843-.843zm3.375 0h-.01a.84.84 0 0 0-.838.844.847.847 0 0 0 1.691 0 .843.843 0 0 0-.843-.843zm-6.777-5.077h.842v.842a.843.843 0 1 0 1.687 0v-.842h.844a.843.843 0 1 0 0-1.688h-.844v-.843a.843.843 0 1 0-1.687 0v.843h-.842a.843.843 0 1 0 0 1.688z" fill="#5683FF"/></svg>