<svg width="54" height="54" fill="none" xmlns="http://www.w3.org/2000/svg"><path d="M5.064 27.849v2.533H3.378a.843.843 0 0 0-.844.844v21.929c0 .466.377.843.844.843h47.245a.843.843 0 0 0 .843-.843v-21.93a.843.843 0 0 0-.843-.843h-1.687v-2.533a.843.843 0 0 0-.844-.844H30.375c-1.385 0-2.605.68-3.375 1.715a4.199 4.199 0 0 0-3.375-1.715H5.908a.843.843 0 0 0-.844.844zm-.843 4.22h.843v17.71c0 .467.377.844.844.844h17.717c1.099 0 2.026.708 2.375 1.688H4.221V32.069zm45.558 0v20.242h-21.78a2.528 2.528 0 0 1 2.376-1.688h17.717a.843.843 0 0 0 .844-.843V32.07h.843zm-19.404-3.376h16.873v20.243H30.375a4.18 4.18 0 0 0-2.531.865V31.226a2.535 2.535 0 0 1 2.531-2.533zm-4.219 2.533v18.576a4.174 4.174 0 0 0-2.531-.865H6.752V28.693h16.873a2.535 2.535 0 0 1 2.531 2.533z" fill="#5683FF"/><path d="M10.127 32.911h7.592a.843.843 0 1 0 0-1.687h-7.592a.843.843 0 1 0 0 1.687zm0 6.754h5.906a.843.843 0 1 0 0-1.688h-5.906a.843.843 0 1 0 0 1.688zm12.654-1.688h-3.373a.843.843 0 1 0 0 1.688h3.373a.843.843 0 1 0 0-1.688zm0-3.377h-9.28a.843.843 0 1 0 0 1.688h9.28a.843.843 0 1 0 0-1.687zm-12.654 1.688h.843a.843.843 0 1 0 0-1.687h-.843a.843.843 0 1 0 0 1.687zm12.654-5.064h-1.687a.843.843 0 1 0 0 1.687h1.687a.843.843 0 1 0 0-1.687zM10.127 43.041h8.435a.843.843 0 1 0 0-1.687h-8.435a.843.843 0 1 0 0 1.688zm12.654-1.687h-.843a.843.843 0 1 0 0 1.688h.843a.843.843 0 1 0 0-1.688zm-9.279 3.376h-3.375a.843.843 0 1 0 0 1.688h3.375a.843.843 0 1 0 0-1.688zm9.279 0h-5.904a.843.843 0 1 0 0 1.688h5.904a.843.843 0 1 0 0-1.688zm13.515-11.826h7.592a.843.843 0 1 0 0-1.687h-7.592a.843.843 0 1 0 0 1.688zm7.592 5.066H37.98a.843.843 0 1 0 0 1.688h5.907a.843.843 0 1 0 0-1.688zm-12.655 1.688h3.373a.843.843 0 1 0 0-1.688h-3.373a.843.843 0 1 0 0 1.688zm0-3.377h9.28a.843.843 0 1 0 0-1.687h-9.28a.843.843 0 1 0 0 1.687zm12.655-1.687h-.844a.843.843 0 1 0 0 1.687h.844a.843.843 0 1 0 0-1.687zm-12.655-1.69h1.688a.843.843 0 1 0 0-1.687h-1.688a.843.843 0 1 0 0 1.688zm12.655 8.443h-8.436a.843.843 0 1 0 0 1.688h8.436a.843.843 0 1 0 0-1.688zm-12.655 1.688h.844a.843.843 0 1 0 0-1.688h-.844a.843.843 0 1 0 0 1.688zm12.655 1.689h-3.375a.843.843 0 1 0 0 1.687h3.375a.843.843 0 1 0 0-1.687zm-12.655 1.687h5.905a.843.843 0 1 0 0-1.687h-5.905a.843.843 0 1 0 0 1.687zm-4.829-19.658a.841.841 0 0 0 1.192 0l1.654-1.654a12.58 12.58 0 0 0 10.406-12.441C39.656 5.679 33.98.002 27 .002c-6.979 0-12.656 5.677-12.656 12.656A12.58 12.58 0 0 0 24.75 25.099l1.654 1.654zM16.03 12.658C16.031 6.61 20.952 1.689 27 1.689c6.048 0 10.969 4.921 10.969 10.969 0 5.426-3.892 9.976-9.256 10.82a.85.85 0 0 0-.466.237L27 24.963l-1.248-1.248a.847.847 0 0 0-.466-.237 10.903 10.903 0 0 1-9.255-10.82z" fill="#5683FF"/><path d="M23.368 9.525a.843.843 0 0 0-1.193 0l-2.532 2.531a.843.843 0 0 0 0 1.194l2.532 2.53a.841.841 0 0 0 1.193 0 .843.843 0 0 0 0-1.192l-1.935-1.935 1.935-1.935a.843.843 0 0 0 0-1.193zm7.25 6.255a.841.841 0 0 0 1.193 0l2.531-2.53a.843.843 0 0 0 0-1.194l-2.53-2.53a.843.843 0 1 0-1.194 1.192l1.935 1.935-1.935 1.935a.843.843 0 0 0 0 1.193zm-4.53 1.406l3.376-8.44a.844.844 0 0 0-1.568-.627L24.52 16.56a.844.844 0 0 0 1.568.626z" fill="#5683FF"/></svg>