<svg width="54" height="54" fill="none" xmlns="http://www.w3.org/2000/svg"><g clip-path="url(#clip0)" fill="#5683FF"><path d="M13.079 34.597a2.956 2.956 0 0 0 2.953-2.953 2.956 2.956 0 0 0-2.953-2.953 2.956 2.956 0 0 0-2.953 2.953 2.956 2.956 0 0 0 2.953 2.953zm0-4.219c.698 0 1.266.568 1.266 1.266 0 .698-.568 1.266-1.266 1.266a1.267 1.267 0 0 1-1.266-1.266c0-.698.568-1.266 1.266-1.266zm35.015 22.778v-3.375a.843.843 0 0 0-.844-.843.844.844 0 0 1-.844-.844.843.843 0 0 0-.843-.844H8.437a.843.843 0 0 0-.843.844.844.844 0 0 1-.844.843.843.843 0 0 0-.844.844v3.375a.843.843 0 1 0 1.688 0V50.47a2.522 2.522 0 0 0 1.531-1.532h35.749a2.522 2.522 0 0 0 1.531 1.532v2.687a.843.843 0 1 0 1.689 0z"/><path d="M.844 44.719h.844v8.437a.843.843 0 1 0 1.687 0V44.72h47.25v8.437a.843.843 0 1 0 1.688 0V44.72h.843a.843.843 0 0 0 .844-.844V40.5a.843.843 0 0 0-.844-.844h-.843v-5.062a5.914 5.914 0 0 0-5.907-5.907l-2.531.002v-1.37c3.02-1.754 5.062-5.015 5.063-8.752v-7.598a5.067 5.067 0 0 0-4.22-4.987V3.375a.843.843 0 0 0-.843-.844h-6.75c-.004 0-.008.003-.011.003-4.647.006-8.426 3.787-8.426 8.435v7.595c0 3.738 2.04 7 5.062 8.754v1.371l-2.53-.002h-.001a5.914 5.914 0 0 0-5.907 5.907v1.69h-.842V24.473a2.534 2.534 0 0 0-2.532-2.531H4.22a2.534 2.534 0 0 0-2.532 2.531v14.342c0 .297.061.578.156.842h-1A.843.843 0 0 0 0 40.5v3.375c0 .467.377.844.844.844zM37.125 4.22l.008-.001h5.898V6.75c0 .467.377.844.844.844a3.378 3.378 0 0 1 3.375 3.375v2.182l-1.091-1.091c-.012-.012-.026-.016-.038-.025-.045-.04-.094-.067-.144-.096-.047-.026-.089-.055-.138-.072-.05-.018-.101-.022-.153-.03-.055-.008-.108-.019-.163-.017-.052.003-.099.018-.15.029-.056.014-.113.025-.167.051-.014.007-.03.006-.043.014-.03.016-2.986 1.586-6.35 1.586-3.349 0-6.322-1.571-6.351-1.587-.015-.008-.03-.007-.043-.014a.89.89 0 0 0-.167-.05c-.051-.013-.1-.028-.153-.03-.052-.002-.101.009-.154.016-.055.008-.11.013-.162.031-.047.017-.088.046-.133.071-.052.03-.101.057-.146.097-.012.01-.026.014-.038.025l-1.091 1.092v-2.182a6.757 6.757 0 0 1 6.75-6.749zm-6.75 14.344v-3.027l1.86-1.86c1.104.503 3.675 1.51 6.578 1.51 2.902 0 5.473-1.007 6.577-1.51l1.86 1.86v3.027c0 4.652-3.785 8.436-8.438 8.436-4.652 0-8.437-3.784-8.437-8.436zm8.438 10.123a10.06 10.06 0 0 0 3.374-.59v1.087l-1.071 1.07-2.037-.679c-.03-.01-.06-.005-.092-.012a.802.802 0 0 0-.175-.02.87.87 0 0 0-.174.02c-.03.007-.06.001-.092.012l-2.037.68-1.072-1.071v-1.087c1.058.375 2.19.59 3.376.59zM27 34.594a4.224 4.224 0 0 1 4.219-4.219l3.025.002 1.44 1.438c.014.014.032.018.046.03.055.05.116.088.183.121.027.014.052.03.08.04a.834.834 0 0 0 .288.056.843.843 0 0 0 .267-.043l2.264-.755 2.265.756a.868.868 0 0 0 .267.042c.1 0 .196-.021.29-.055.028-.011.052-.027.08-.04a.797.797 0 0 0 .182-.122c.014-.013.032-.017.045-.03l1.44-1.438 3.025-.002a4.224 4.224 0 0 1 4.219 4.219v5.062H32.752c.093-.264.154-.545.154-.84v-1.688a.843.843 0 0 0-.843-.843H27v-1.691zm4.219 3.378v.844c0 .46-.37.831-.827.84h-6.077c.093-.263.154-.541.154-.835l.001-.007v-.842h6.749zm-27-14.344h17.72c.465 0 .843.378.843.844v14.344c0 .46-.37.831-.828.84H4.211a.843.843 0 0 1-.835-.842V24.472c0-.466.378-.844.844-.844zM1.688 41.344h1.68l.008.001h17.71l.008.002h9.282c.012 0 .021-.003.033-.003h21.044c.006 0 .01.003.017.003.006 0 .01-.003.017-.003h.827v1.687H1.687v-1.687z"/><path d="M38.838 38.813a.844.844 0 1 0 0-1.688h-.009a.84.84 0 0 0-.838.844c0 .466.381.843.847.843zm0-3.375a.844.844 0 1 0 0-1.688h-.009a.84.84 0 0 0-.838.844c0 .466.381.843.847.843zM12.262 19.361l.641.642a.841.841 0 0 0 1.194 0l.772-.773a9.644 9.644 0 0 0 7.912-9.527c0-5.35-4.353-9.703-9.703-9.703S3.375 4.353 3.375 9.703a9.687 9.687 0 0 0 8.887 9.659zm.816-17.674c4.42 0 8.016 3.597 8.016 8.016a7.966 7.966 0 0 1-6.764 7.907.85.85 0 0 0-.466.237l-.364.366-.268-.268a.846.846 0 0 0-.555-.247 8.001 8.001 0 0 1-7.614-7.995c0-4.42 3.596-8.015 8.015-8.015z"/><path d="M15.857 12.399a.841.841 0 0 0 1.193 0l2.099-2.1c.003-.003.007-.003.01-.006a.84.84 0 0 0 .247-.598.842.842 0 0 0-.247-.598c-.003-.004-.007-.004-.01-.007l-2.1-2.101a.843.843 0 1 0-1.192 1.193l1.51 1.513-1.51 1.51a.843.843 0 0 0 0 1.194zm-6.75 0a.842.842 0 0 0 1.193 0 .843.843 0 0 0 0-1.193L8.789 9.695l1.51-1.513a.843.843 0 1 0-1.192-1.193l-2.1 2.1c-.003.004-.006.004-.01.008a.843.843 0 0 0 0 1.196c.004.003.007.003.01.007l2.1 2.099zm2.44 1.891a.843.843 0 0 0 1.066-.533l2.532-7.597a.843.843 0 1 0-1.601-.534l-2.531 7.597a.844.844 0 0 0 .534 1.068z"/></g><defs><clipPath id="clip0"><path fill="#fff" d="M0 0h54v54H0z"/></clipPath></defs></svg>