<svg width="54" height="54" fill="none" xmlns="http://www.w3.org/2000/svg"><path d="M2.848 0l4.668 48.674L27.045 54l19.529-5.326L51.243 0H2.848zm40.76 46.176l-16.563 4.518-16.564-4.518L6.358 3.19h41.374l-4.123 42.986z" fill="#5683FF"/><path d="M13.356 29.102h18.801l-.31 4.845-4.68 1.527-4.928-1.522V31.31h-9.051v9.093l13.977 4.347 13.024-3.788 1.697-20.557-20.457-.235-.236-2.115h20.763V9.33H11.149l2.207 19.772zm25.41-16.582v2.347l-21.14-.001.947 8.462 19.852.228-1.234 14.957-9.995 2.907-10.818-3.364V34.5h2.671v1.803l8.145 2.517 7.697-2.512.667-10.396H16.21L14.714 12.52h24.053z" fill="#5683FF"/></svg>