<svg width="54" height="54" fill="none" xmlns="http://www.w3.org/2000/svg"><path d="M1.267 54h33.747a.843.843 0 0 0 .844-.844v-1.689h1.689a.843.843 0 0 0 .844-.844V5.906a.853.853 0 0 0-.248-.597L33.082.247A.832.832 0 0 0 32.484 0H3.8a.844.844 0 0 0-.844.844v1.689H1.267a.844.844 0 0 0-.843.844v49.78c0 .466.377.843.843.843zM33.328 2.88l2.182 2.183h-2.182V2.88zM4.644 1.689h26.997v4.218c0 .466.377.844.843.844h4.22v43.03H4.643V1.687zM2.111 4.22h.845v46.403c0 .467.378.844.844.844h30.37v.846H2.111V4.22z" fill="#5683FF"/><path d="M15.611 29.535a.843.843 0 0 0-.844-.844 2.535 2.535 0 0 1-2.53-2.533V22.78c0-.65-.255-1.238-.659-1.687a2.515 2.515 0 0 0 .658-1.688V16.03a2.534 2.534 0 0 1 2.531-2.531.844.844 0 1 0 0-1.688 4.223 4.223 0 0 0-4.218 4.22v3.374a.845.845 0 0 1-.844.844.844.844 0 1 0 0 1.688c.466 0 .844.378.844.843v3.377a4.224 4.224 0 0 0 4.218 4.22.843.843 0 0 0 .844-.843zm16.031-9.285a.845.845 0 0 1-.843-.844v-3.375a4.224 4.224 0 0 0-4.22-4.218.843.843 0 1 0 0 1.687 2.534 2.534 0 0 1 2.532 2.531v3.375c0 .65.254 1.239.658 1.688a2.514 2.514 0 0 0-.658 1.687v3.377a2.535 2.535 0 0 1-2.531 2.533.843.843 0 1 0 0 1.687 4.225 4.225 0 0 0 4.219-4.22V22.78c0-.465.378-.843.843-.843a.844.844 0 1 0 0-1.688zm-14.322 0h-.009a.84.84 0 0 0-.838.844.847.847 0 0 0 1.691 0 .844.844 0 0 0-.844-.844zm3.379 1.688a.844.844 0 0 0 0-1.688h-.01a.84.84 0 0 0-.838.844c0 .465.381.843.848.843zm4.221-.844a.844.844 0 0 0-.844-.844h-.01a.84.84 0 0 0-.838.844c0 .465.381.843.848.843a.844.844 0 0 0 .843-.843zM16.455 39.66a.843.843 0 0 0-.844.843.844.844 0 0 1-1.687 0v-3.375a.844.844 0 0 1 1.685 0 .843.843 0 1 0 1.688 0 2.533 2.533 0 0 0-2.53-2.53 2.534 2.534 0 0 0-2.53 2.53v3.375a2.534 2.534 0 0 0 2.53 2.532 2.534 2.534 0 0 0 2.532-2.532.843.843 0 0 0-.844-.843zm10.125-3.375c.465 0 .842.378.842.843a.843.843 0 1 0 1.687 0 2.533 2.533 0 0 0-2.53-2.53 2.534 2.534 0 0 0-2.53 2.53c0 1.365 1.243 1.987 2.151 2.443.714.357 1.219.634 1.219.932a.844.844 0 0 1-1.688 0 .843.843 0 1 0-1.688 0 2.534 2.534 0 0 0 2.532 2.532 2.534 2.534 0 0 0 2.531-2.532c0-1.364-1.244-1.987-2.152-2.442-.713-.357-1.218-.634-1.218-.933 0-.465.378-.843.844-.843zm-5.912 0c.465 0 .842.378.842.843a.843.843 0 1 0 1.687 0 2.533 2.533 0 0 0-2.53-2.53 2.534 2.534 0 0 0-2.53 2.53c0 1.365 1.243 1.987 2.151 2.443.714.357 1.218.634 1.218.932a.844.844 0 0 1-1.687 0 .843.843 0 1 0-1.688 0 2.534 2.534 0 0 0 2.532 2.532 2.534 2.534 0 0 0 2.53-2.532c0-1.364-1.243-1.987-2.15-2.442-.715-.357-1.22-.634-1.22-.933 0-.465.379-.843.845-.843zm20.254 3.159v3.607a.843.843 0 1 0 1.687 0v-3.374h.844v.839a.843.843 0 1 0 1.688 0v-.839h.843v6.752a.843.843 0 1 0 1.688 0v-6.752h.844v1.684a.843.843 0 1 0 1.687 0v-1.684h.844v3.374a.843.843 0 1 0 1.687 0v-3.61c.502-.293.842-.83.842-1.451V27.86a3.378 3.378 0 0 0-3.358-3.373c-.006 0-.01-.003-.017-.003h-.843V9.295a2.534 2.534 0 0 0-2.532-2.532 2.534 2.534 0 0 0-2.53 2.532v15.189h-.845a3.38 3.38 0 0 0-3.376 3.377v10.13c0 .622.343 1.16.847 1.453zm.84-1.454v-.844H51.89v.844H41.762zm10.127-2.532H41.762v-5.08H51.89v5.08zM45.983 9.297c0-.001 0-.001 0 0a.845.845 0 0 1 1.687-.001v15.189h-1.687V9.296zM43.45 26.17h6.742l.008.002a1.69 1.69 0 0 1 1.688 1.688v.83H41.762v-.83c0-.932.759-1.69 1.69-1.69z" fill="#5683FF"/></svg>