<svg width="54" height="54" fill="none" xmlns="http://www.w3.org/2000/svg"><g clip-path="url(#clip0)" fill="#5683FF"><path d="M5.775 3.037c-1.28 0-2.32 1.04-2.32 2.32 0 1.28 1.04 2.32 2.32 2.32 1.28 0 2.32-1.04 2.32-2.32 0-1.28-1.04-2.32-2.32-2.32zm0 3.061a.742.742 0 0 1 0-1.482.742.742 0 0 1 0 1.482zm5.912-3.061c-1.28 0-2.32 1.04-2.32 2.32 0 1.28 1.04 2.32 2.32 2.32 1.279 0 2.32-1.04 2.32-2.32 0-1.28-1.041-2.32-2.32-2.32zm0 3.061a.742.742 0 0 1 0-1.482.742.742 0 0 1 0 1.482zm5.911-3.061c-1.28 0-2.32 1.04-2.32 2.32 0 1.28 1.04 2.32 2.32 2.32 1.28 0 2.32-1.04 2.32-2.32 0-1.28-1.04-2.32-2.32-2.32zm0 3.061a.742.742 0 0 1 0-1.482.742.742 0 0 1 0 1.482zm1.531 8.386H5.775a.79.79 0 1 0 0 1.58H19.13a.79.79 0 1 0 0-1.58zm0 3.711H5.775a.79.79 0 1 0 0 1.58H19.13a.79.79 0 1 0 0-1.58zm0 3.711H5.775a.79.79 0 1 0 0 1.58H19.13a.79.79 0 1 0 0-1.58zm0 3.711H5.775a.79.79 0 1 0 0 1.58H19.13a.79.79 0 1 0 0-1.58zm0 3.712H5.775a.79.79 0 1 0 0 1.579H19.13a.79.79 0 1 0 0-1.58zm0 3.711H5.775a.79.79 0 1 0 0 1.579H19.13a.79.79 0 0 0 0-1.58zm0 3.71H5.775a.79.79 0 1 0 0 1.58H19.13a.79.79 0 1 0 0-1.58zm0 3.712H5.775a.79.79 0 1 0 0 1.579H19.13a.79.79 0 1 0 0-1.58zm0 3.711H5.775a.79.79 0 1 0 0 1.579H19.13a.79.79 0 1 0 0-1.58zm0 3.71H5.775a.79.79 0 1 0 0 1.58H19.13a.79.79 0 1 0 0-1.58zm3.804-33.895V49.96a.79.79 0 0 0 1.579 0V13.99a.79.79 0 1 0-1.58 0z"/><path d="M50.52 0H3.48A3.485 3.485 0 0 0 0 3.48v47.04A3.484 3.484 0 0 0 3.48 54H27a.79.79 0 1 0 0-1.58H3.48a1.903 1.903 0 0 1-1.9-1.9V10.76h50.84v39.76a1.903 1.903 0 0 1-1.9 1.9H31.873a.79.79 0 1 0 0 1.58h18.646A3.483 3.483 0 0 0 54 50.52V3.48A3.485 3.485 0 0 0 50.52 0zm1.9 9.18H1.58v-5.7c0-1.048.852-1.9 1.9-1.9h47.04c1.048 0 1.9.852 1.9 1.9v5.7z"/><path d="M47.187 3.037h-4.605a.79.79 0 0 0 0 1.58h4.605a.793.793 0 0 1 0 1.584H26.212a.793.793 0 0 1 0-1.585H37.67a.79.79 0 1 0 0-1.579H26.212A2.374 2.374 0 0 0 23.84 5.41a2.374 2.374 0 0 0 2.372 2.371h20.975a2.374 2.374 0 0 0 2.371-2.371 2.374 2.374 0 0 0-2.371-2.372zm2.494 13.08c0-.9-.732-1.633-1.633-1.633H29.084c-.9 0-1.633.733-1.633 1.633v7.143c0 .9.732 1.633 1.633 1.633h18.964c.901 0 1.633-.733 1.633-1.633v-7.143zm-17.59 7.197l4.244-4.244 3.313 3.734a.79.79 0 0 0 1.231-.986l1.58-1.58 2.728 3.076H32.09zm16.011-.054c0 .03-.024.054-.054.054h-.75l-3.769-4.248a1.424 1.424 0 0 0-2.07-.062l-1.627 1.628-2.426-2.734a1.428 1.428 0 0 0-1.022-.477 1.43 1.43 0 0 0-1.048.415l-5.48 5.478h-.772a.054.054 0 0 1-.054-.054v-7.143c0-.03.024-.054.054-.054h18.964c.03 0 .054.025.054.054v7.143zM28.24 29.367h3.786a.79.79 0 1 0 0-1.58H28.24a.79.79 0 0 0 0 1.58zm14.084-.789a.79.79 0 0 0-.79-.79h-6.862a.79.79 0 1 0 0 1.579h6.863a.79.79 0 0 0 .79-.79zm6.568-.79h-4.177a.79.79 0 1 0 0 1.579h4.177a.79.79 0 0 0 0-1.58zM28.24 32.37h4.797a.79.79 0 1 0 0-1.579H28.24a.79.79 0 0 0 0 1.58zm7.861 0h8.128a.79.79 0 1 0 0-1.579H36.1a.79.79 0 1 0 0 1.58zm12.791-1.58h-1.865a.79.79 0 1 0 0 1.58h1.865a.79.79 0 0 0 0-1.58zm.789 17.74v-12.3c0-.901-.732-1.633-1.633-1.633H29.084c-.9 0-1.633.732-1.633 1.633v12.3c0 .9.732 1.633 1.633 1.633h18.964c.901 0 1.633-.733 1.633-1.633zm-20.651 0v-12.3c0-.03.024-.054.054-.054h18.964c.03 0 .054.024.054.054v12.3c0 .03-.024.053-.054.053H29.084a.054.054 0 0 1-.054-.053z"/><path d="M41.319 41.057l-3.978-2.297a1.512 1.512 0 0 0-1.528 0c-.478.276-.764.77-.764 1.322v4.594c0 .552.286 1.047.764 1.323.24.138.502.207.764.207s.525-.069.764-.207l3.978-2.297c.478-.276.764-.77.764-1.322 0-.553-.286-1.047-.764-1.323zm-4.69 3.53v-4.415l3.823 2.208-3.823 2.206z"/></g><defs><clipPath id="clip0"><path fill="#fff" d="M0 0h54v54H0z"/></clipPath></defs></svg>