<svg width="54" height="54" fill="none" xmlns="http://www.w3.org/2000/svg"><g clip-path="url(#clip0)" fill="#5683FF"><path d="M52.875 11.25H51.75V7.875c0-.62-.504-1.125-1.125-1.125H25.68l-.879-1.653a1.126 1.126 0 0 0-.993-.597H1.125C.504 4.5 0 5.004 0 5.625v42.75c0 .621.504 1.125 1.125 1.125h51.75c.621 0 1.125-.504 1.125-1.125v-36c0-.621-.504-1.125-1.125-1.125zM49.5 9v2.25H28.074L26.878 9H49.5zm2.25 38.25H2.25V6.75h20.881l.879 1.652.009.016 2.385 4.486c.196.367.578.597.994.597h24.351v33.748z"/><path d="M17.224 11.251h.026a1.125 1.125 0 0 0 0-2.25h-.026a1.125 1.125 0 0 0 0 2.25zm-2.107-1.126c0-.621-.504-1.125-1.126-1.125H5.625a1.125 1.125 0 0 0 0 2.25h8.366c.622 0 1.126-.503 1.126-1.125zm3.163 23.827c.337 0 .528-.36.528-.777 0-.36-.158-.753-.529-.753h-4.005c-.382 0-.765.18-.765.54v7.143c0 .36.382.54.765.54h4.005c.371 0 .529-.393.529-.754 0-.416-.191-.776-.529-.776h-3.015v-1.912h1.688c.37 0 .528-.36.528-.664 0-.36-.191-.686-.529-.686h-1.687v-1.901h3.015zm-10.214.562c0-.349.327-.675 1.125-.675.923 0 1.136.427 1.542.427.494 0 .697-.618.697-.922 0-.878-1.643-.99-2.24-.99-1.405 0-2.879.641-2.879 2.329 0 2.632 3.566 2.396 3.566 3.757 0 .54-.574.742-1.091.742-1.046 0-1.384-.832-1.913-.832-.427 0-.765.562-.765.945 0 .742 1.238 1.462 2.711 1.462 1.632 0 2.813-.877 2.813-2.497 0-2.835-3.566-2.62-3.566-3.746zm14.403-13.745c0-.371-.158-.777-.529-.777h-4.86c-.371 0-.529.406-.529.777 0 .427.192.799.53.799h1.552v6.108c0 .36.438.54.877.54s.878-.18.878-.54v-6.108h1.552c.337 0 .529-.372.529-.8zm20.033 13.228h1.553v6.108c0 .36.439.54.878.54.438 0 .877-.18.877-.54v-6.108h1.553c.337 0 .528-.371.528-.8 0-.37-.157-.775-.528-.775h-4.86c-.372 0-.529.405-.529.776 0 .428.191.799.529.799zm-7.085-1.036v7.144c0 .36.383.54.765.54h4.005c.371 0 .529-.394.529-.754 0-.416-.191-.776-.529-.776h-3.015v-1.912h1.688c.37 0 .528-.36.528-.664 0-.36-.19-.686-.528-.686h-1.688v-1.901h3.015c.338 0 .529-.36.529-.777 0-.36-.158-.753-.529-.753h-4.005c-.382 0-.765.18-.765.54zm-2.918-4.745c.439 0 .877-.18.877-.54v-2.43h1.114c1.553 0 2.768-.72 2.768-2.61v-.056c0-1.89-1.17-2.588-2.655-2.588h-2.329c-.394 0-.652.248-.652.53v7.154c0 .36.438.54.877.54zm.877-6.694h1.114c.63 0 1.013.36 1.013 1.125v.124c0 .765-.383 1.125-1.013 1.125h-1.114v-2.374zm-9.414 1.125v2.982c0 1.935 1.204 2.655 2.757 2.655 1.552 0 2.767-.72 2.767-2.655v-2.982c0-1.935-1.215-2.655-2.767-2.655-1.553 0-2.757.72-2.757 2.655zm3.77 0v2.982c0 .776-.383 1.124-1.013 1.124-.63 0-1.002-.348-1.002-1.124v-2.982c0-.776.372-1.125 1.002-1.125s1.012.35 1.012 1.125zm.105 10.303v7.155c0 .36.439.54.878.54.438 0 .877-.18.877-.54v-2.711h.742l1.542 2.992a.6.6 0 0 0 .562.327c.518 0 1.103-.473 1.103-.912a.37.37 0 0 0-.057-.202l-1.372-2.487c.787-.303 1.361-1.023 1.361-2.283 0-1.834-1.226-2.408-2.767-2.408h-2.33a.524.524 0 0 0-.539.529zm1.755 1.001h1.114c.63 0 1.012.259 1.012 1.047 0 .787-.382 1.046-1.012 1.046h-1.114V33.95zm-6.41 0c.956 0 .99.72 1 1.013.023.405.406.529.878.529.597 0 .878-.158.878-.833 0-1.429-1.215-2.239-2.824-2.239-1.474 0-2.7.72-2.7 2.656v2.98c0 1.936 1.226 2.656 2.7 2.656 1.609 0 2.824-.855 2.824-2.352 0-.674-.281-.832-.889-.832-.45 0-.832.112-.866.53-.034.438-.09 1.124-.99 1.124-.652 0-1.024-.36-1.024-1.125v-2.981c0-.765.372-1.126 1.013-1.126z"/></g><defs><clipPath id="clip0"><path fill="#fff" d="M0 0h54v54H0z"/></clipPath></defs></svg>