<svg width="54" height="54" fill="none" xmlns="http://www.w3.org/2000/svg"><path d="M6.75 12.656h14.344a.843.843 0 1 0 0-1.687H6.75a.843.843 0 1 0 0 1.687zm11.813 2.532a.843.843 0 0 0-.844-.844H8.437a.843.843 0 1 0 0 1.687h9.282a.843.843 0 0 0 .843-.843zm-1.688 16.041H8.437a.843.843 0 1 0 0 1.687h8.438a.843.843 0 1 0 0-1.687zm3.375-16.041c0 .466.377.843.844.843h6.755a.843.843 0 1 0 0-1.687h-6.755a.843.843 0 0 0-.844.844zm-8.437 19.406H6.75a.843.843 0 1 0 0 1.687h5.063a.843.843 0 1 0 0-1.687zm-1.688-16.875a.843.843 0 1 0 0 1.687H13.5a.843.843 0 1 0 0-1.687h-3.375zm5.906.844c0 .466.377.843.844.843h19.417a.843.843 0 1 0 0-1.687H16.875a.843.843 0 0 0-.844.843zm14.349 2.531H10.126a.843.843 0 1 0 0 1.687h20.256a.843.843 0 1 0 0-1.687zm-10.13 4.219a.843.843 0 0 0-.844-.844h-9.281a.843.843 0 1 0 0 1.687h9.281a.843.843 0 0 0 .844-.843zm8.443 2.531H15.187a.843.843 0 1 0 0 1.687h13.506a.843.843 0 1 0 0-1.687zm-18.568 0a.843.843 0 1 0 0 1.687h1.688a.843.843 0 1 0 0-1.687h-1.688z" fill="#5683FF"/><path d="M44.724 26.2V6.75a2.534 2.534 0 0 0-2.531-2.531H2.53A2.534 2.534 0 0 0 0 6.75v32.062c0 .467.377.844.844.844H33.75c0 3.599 1.892 6.755 4.728 8.552l.007.005a10.05 10.05 0 0 0 10.788-.005C52.108 46.41 54 43.255 54 39.656v-3.375c0-5.296-4.09-9.649-9.276-10.082zM2.53 5.905h.86a.84.84 0 0 0-.839.844c0 .467.383.844.848.844a.844.844 0 1 0 0-1.688h2.523a.84.84 0 0 0-.84.844c0 .467.383.844.849.844a.844.844 0 1 0 0-1.688h2.522a.84.84 0 0 0-.84.844.847.847 0 0 0 1.693 0 .844.844 0 0 0-.844-.844h33.73c.465 0 .843.378.843.844v.844H1.688V6.75c0-.466.378-.844.843-.844zM1.686 9.28h.844v28.69h-.844V9.28zM4.22 37.97V9.28h38.817V26.2c-5.19.429-9.286 4.783-9.286 10.082v1.688H4.219zm31.761 4.634a10.151 10.151 0 0 0 1.989 1.885v1.182a8.439 8.439 0 0 1-1.989-3.067zm12.114 2.87v1.48a8.374 8.374 0 0 1-3.375 1.099v-1.688c1.196-.1 2.332-.41 3.375-.89zm-5.063 2.578a8.359 8.359 0 0 1-3.375-1.1v-1.478a10.02 10.02 0 0 0 3.375.89v1.688zm6.75-2.38v-1.183a10.148 10.148 0 0 0 1.989-1.884 8.452 8.452 0 0 1-1.989 3.067zm-5.906-.952c-4.652 0-8.438-3.785-8.438-8.438 0-4.645 3.775-8.424 8.416-8.436.01 0 .018.006.027.006.01 0 .017-.006.024-.006 4.64.017 8.408 3.794 8.408 8.436 0 4.653-3.785 8.438-8.437 8.438z" fill="#5683FF"/><path d="M43.875 32.062a.843.843 0 0 0-.844.844v6.751a.843.843 0 1 0 1.688 0v-6.751a.843.843 0 0 0-.844-.844z" fill="#5683FF"/></svg>