<?xml version="1.0" encoding="utf-8"?><svg xmlns="http://www.w3.org/2000/svg" xmlns:xlink="http://www.w3.org/1999/xlink"><symbol viewBox="0 0 54 54" id="adaptive" xmlns="http://www.w3.org/2000/svg"><path d="M27.844 15.188h-1.688v1.687h1.688v-1.688zm-3.375 0H22.78v1.687h1.688v-1.688zm6.75 0H29.53v1.687h1.688v-1.688zM10.969 47.25H9.28v1.688h1.688V47.25zm3.375 0h-1.688v1.688h1.688V47.25zm3.375 0H16.03v1.688h1.688V47.25z"/><path d="M49.781 1.688H4.22a2.531 2.531 0 0 0-2.532 2.53v43.876a4.224 4.224 0 0 0 4.22 4.218h15.187a4.224 4.224 0 0 0 4.218-4.218v-.844h10.125v.844a4.224 4.224 0 0 0 4.22 4.218h8.437a4.224 4.224 0 0 0 4.218-4.218V4.219a2.531 2.531 0 0 0-2.53-2.532zM3.375 4.217a.844.844 0 0 1 .844-.843H49.78a.844.844 0 0 1 .844.844V26.15a4.17 4.17 0 0 0-.844-.474V4.219H4.22v14.7c-.032.013-.063.03-.094.043a21.94 21.94 0 0 0-.75.443V4.219zM42.188 27h3.374v.844h-3.374V27zM5.906 18.562V5.906h42.188v19.407h-8.438a4.226 4.226 0 0 0-4.134 3.375h-10.21V22.78a4.224 4.224 0 0 0-4.218-4.218H5.906zm10.969 1.688v.844a.844.844 0 0 1-.844.843H10.97a.844.844 0 0 1-.844-.843v-.844h6.75zm8.438 10.125h10.125v5.063H25.312v-5.063zm-1.688 17.719a2.531 2.531 0 0 1-2.531 2.531H5.906a2.531 2.531 0 0 1-2.531-2.531V22.78a2.526 2.526 0 0 1 1.916-2.453c.2-.054.408-.08.615-.078h2.532v.844a2.531 2.531 0 0 0 2.53 2.531h5.063a2.531 2.531 0 0 0 2.532-2.531v-.844h2.53a2.531 2.531 0 0 1 2.532 2.531v25.313zm1.688-2.532v-8.437h5.343l3.516 8.438h-8.86zm7.171-8.437h2.953v7.087l-2.953-7.087zm18.141 10.969a2.531 2.531 0 0 1-2.531 2.531h-8.438a2.531 2.531 0 0 1-2.531-2.531V29.53A2.531 2.531 0 0 1 39.656 27h.844v.844a1.687 1.687 0 0 0 1.688 1.687h3.374a1.687 1.687 0 0 0 1.688-1.687V27h.844c.203-.002.405.024.6.077l.03.006h.012a2.518 2.518 0 0 1 1.889 2.448v18.563z"/><path d="M44.719 47.25H43.03v1.688h1.688V47.25zm3.375 0h-1.688v1.688h1.688V47.25zm-6.75 0h-1.688v1.688h1.688V47.25z"/></symbol><symbol viewBox="0 0 24 24" id="down-arrow" xmlns="http://www.w3.org/2000/svg"><path d="M22.567 6.437a.764.764 0 0 0-1.079 0L12 15.944 2.493 6.437a.764.764 0 0 0-1.08 1.08l10.029 10.027a.745.745 0 0 0 .54.223c.185 0 .39-.074.539-.223L22.549 7.516a.748.748 0 0 0 .018-1.079z"/></symbol><symbol viewBox="0 0 54 54" id="icon1" xmlns="http://www.w3.org/2000/svg"><g clip-path="url(#cclip0)"><path d="M5.775 3.037c-1.28 0-2.32 1.04-2.32 2.32 0 1.28 1.04 2.32 2.32 2.32 1.28 0 2.32-1.04 2.32-2.32 0-1.28-1.04-2.32-2.32-2.32zm0 3.061a.742.742 0 0 1 0-1.482.742.742 0 0 1 0 1.482zm5.912-3.061c-1.28 0-2.32 1.04-2.32 2.32 0 1.28 1.04 2.32 2.32 2.32 1.279 0 2.32-1.04 2.32-2.32 0-1.28-1.041-2.32-2.32-2.32zm0 3.061a.742.742 0 0 1 0-1.482.742.742 0 0 1 0 1.482zm5.911-3.061c-1.28 0-2.32 1.04-2.32 2.32 0 1.28 1.04 2.32 2.32 2.32 1.28 0 2.32-1.04 2.32-2.32 0-1.28-1.04-2.32-2.32-2.32zm0 3.061a.742.742 0 0 1 0-1.482.742.742 0 0 1 0 1.482zm1.531 8.386H5.775a.79.79 0 1 0 0 1.58H19.13a.79.79 0 1 0 0-1.58zm0 3.711H5.775a.79.79 0 1 0 0 1.58H19.13a.79.79 0 1 0 0-1.58zm0 3.711H5.775a.79.79 0 1 0 0 1.58H19.13a.79.79 0 1 0 0-1.58zm0 3.711H5.775a.79.79 0 1 0 0 1.58H19.13a.79.79 0 1 0 0-1.58zm0 3.712H5.775a.79.79 0 1 0 0 1.579H19.13a.79.79 0 1 0 0-1.58zm0 3.711H5.775a.79.79 0 1 0 0 1.579H19.13a.79.79 0 0 0 0-1.58zm0 3.71H5.775a.79.79 0 1 0 0 1.58H19.13a.79.79 0 1 0 0-1.58zm0 3.712H5.775a.79.79 0 1 0 0 1.579H19.13a.79.79 0 1 0 0-1.58zm0 3.711H5.775a.79.79 0 1 0 0 1.579H19.13a.79.79 0 1 0 0-1.58zm0 3.71H5.775a.79.79 0 1 0 0 1.58H19.13a.79.79 0 1 0 0-1.58zm3.804-33.895V49.96a.79.79 0 0 0 1.579 0V13.99a.79.79 0 1 0-1.58 0z"/><path d="M50.52 0H3.48A3.485 3.485 0 0 0 0 3.48v47.04A3.484 3.484 0 0 0 3.48 54H27a.79.79 0 1 0 0-1.58H3.48a1.903 1.903 0 0 1-1.9-1.9V10.76h50.84v39.76a1.903 1.903 0 0 1-1.9 1.9H31.873a.79.79 0 1 0 0 1.58h18.646A3.483 3.483 0 0 0 54 50.52V3.48A3.485 3.485 0 0 0 50.52 0zm1.9 9.18H1.58v-5.7c0-1.048.852-1.9 1.9-1.9h47.04c1.048 0 1.9.852 1.9 1.9v5.7z"/><path d="M47.187 3.037h-4.605a.79.79 0 0 0 0 1.58h4.605a.793.793 0 0 1 0 1.584H26.212a.793.793 0 0 1 0-1.585H37.67a.79.79 0 1 0 0-1.579H26.212A2.374 2.374 0 0 0 23.84 5.41a2.374 2.374 0 0 0 2.372 2.371h20.975a2.374 2.374 0 0 0 2.371-2.371 2.374 2.374 0 0 0-2.371-2.372zm2.494 13.08c0-.9-.732-1.633-1.633-1.633H29.084c-.9 0-1.633.733-1.633 1.633v7.143c0 .9.732 1.633 1.633 1.633h18.964c.901 0 1.633-.733 1.633-1.633v-7.143zm-17.59 7.197l4.244-4.244 3.313 3.734a.79.79 0 0 0 1.231-.986l1.58-1.58 2.728 3.076H32.09zm16.011-.054c0 .03-.024.054-.054.054h-.75l-3.769-4.248a1.424 1.424 0 0 0-2.07-.062l-1.627 1.628-2.426-2.734a1.428 1.428 0 0 0-1.022-.477 1.43 1.43 0 0 0-1.048.415l-5.48 5.478h-.772a.054.054 0 0 1-.054-.054v-7.143c0-.03.024-.054.054-.054h18.964c.03 0 .054.025.054.054v7.143zM28.24 29.367h3.786a.79.79 0 1 0 0-1.58H28.24a.79.79 0 0 0 0 1.58zm14.084-.789a.79.79 0 0 0-.79-.79h-6.862a.79.79 0 1 0 0 1.579h6.863a.79.79 0 0 0 .79-.79zm6.568-.79h-4.177a.79.79 0 1 0 0 1.579h4.177a.79.79 0 0 0 0-1.58zM28.24 32.37h4.797a.79.79 0 1 0 0-1.579H28.24a.79.79 0 0 0 0 1.58zm7.861 0h8.128a.79.79 0 1 0 0-1.579H36.1a.79.79 0 1 0 0 1.58zm12.791-1.58h-1.865a.79.79 0 1 0 0 1.58h1.865a.79.79 0 0 0 0-1.58zm.789 17.74v-12.3c0-.901-.732-1.633-1.633-1.633H29.084c-.9 0-1.633.732-1.633 1.633v12.3c0 .9.732 1.633 1.633 1.633h18.964c.901 0 1.633-.733 1.633-1.633zm-20.651 0v-12.3c0-.03.024-.054.054-.054h18.964c.03 0 .054.024.054.054v12.3c0 .03-.024.053-.054.053H29.084a.054.054 0 0 1-.054-.053z"/><path d="M41.319 41.057l-3.978-2.297a1.512 1.512 0 0 0-1.528 0c-.478.276-.764.77-.764 1.322v4.594c0 .552.286 1.047.764 1.323.24.138.502.207.764.207s.525-.069.764-.207l3.978-2.297c.478-.276.764-.77.764-1.322 0-.553-.286-1.047-.764-1.323zm-4.69 3.53v-4.415l3.823 2.208-3.823 2.206z"/></g><defs><clipPath id="cclip0"><path d="M0 0h54v54H0z"/></clipPath></defs></symbol><symbol viewBox="0 0 54 54" id="icon10" xmlns="http://www.w3.org/2000/svg"><path d="M6.75 12.656h14.344a.843.843 0 1 0 0-1.687H6.75a.843.843 0 1 0 0 1.687zm11.813 2.532a.843.843 0 0 0-.844-.844H8.437a.843.843 0 1 0 0 1.687h9.282a.843.843 0 0 0 .843-.843zm-1.688 16.041H8.437a.843.843 0 1 0 0 1.687h8.438a.843.843 0 1 0 0-1.687zm3.375-16.041c0 .466.377.843.844.843h6.755a.843.843 0 1 0 0-1.687h-6.755a.843.843 0 0 0-.844.844zm-8.437 19.406H6.75a.843.843 0 1 0 0 1.687h5.063a.843.843 0 1 0 0-1.687zm-1.688-16.875a.843.843 0 1 0 0 1.687H13.5a.843.843 0 1 0 0-1.687h-3.375zm5.906.844c0 .466.377.843.844.843h19.417a.843.843 0 1 0 0-1.687H16.875a.843.843 0 0 0-.844.843zm14.349 2.531H10.126a.843.843 0 1 0 0 1.687h20.256a.843.843 0 1 0 0-1.687zm-10.13 4.219a.843.843 0 0 0-.844-.844h-9.281a.843.843 0 1 0 0 1.687h9.281a.843.843 0 0 0 .844-.843zm8.443 2.531H15.187a.843.843 0 1 0 0 1.687h13.506a.843.843 0 1 0 0-1.687zm-18.568 0a.843.843 0 1 0 0 1.687h1.688a.843.843 0 1 0 0-1.687h-1.688z"/><path d="M44.724 26.2V6.75a2.534 2.534 0 0 0-2.531-2.531H2.53A2.534 2.534 0 0 0 0 6.75v32.062c0 .467.377.844.844.844H33.75c0 3.599 1.892 6.755 4.728 8.552l.007.005a10.05 10.05 0 0 0 10.788-.005C52.108 46.41 54 43.255 54 39.656v-3.375c0-5.296-4.09-9.649-9.276-10.082zM2.53 5.905h.86a.84.84 0 0 0-.839.844c0 .467.383.844.848.844a.844.844 0 1 0 0-1.688h2.523a.84.84 0 0 0-.84.844c0 .467.383.844.849.844a.844.844 0 1 0 0-1.688h2.522a.84.84 0 0 0-.84.844.847.847 0 0 0 1.693 0 .844.844 0 0 0-.844-.844h33.73c.465 0 .843.378.843.844v.844H1.688V6.75c0-.466.378-.844.843-.844zM1.686 9.28h.844v28.69h-.844V9.28zM4.22 37.97V9.28h38.817V26.2c-5.19.429-9.286 4.783-9.286 10.082v1.688H4.219zm31.761 4.634a10.151 10.151 0 0 0 1.989 1.885v1.182a8.439 8.439 0 0 1-1.989-3.067zm12.114 2.87v1.48a8.374 8.374 0 0 1-3.375 1.099v-1.688c1.196-.1 2.332-.41 3.375-.89zm-5.063 2.578a8.359 8.359 0 0 1-3.375-1.1v-1.478a10.02 10.02 0 0 0 3.375.89v1.688zm6.75-2.38v-1.183a10.148 10.148 0 0 0 1.989-1.884 8.452 8.452 0 0 1-1.989 3.067zm-5.906-.952c-4.652 0-8.438-3.785-8.438-8.438 0-4.645 3.775-8.424 8.416-8.436.01 0 .018.006.027.006.01 0 .017-.006.024-.006 4.64.017 8.408 3.794 8.408 8.436 0 4.653-3.785 8.438-8.437 8.438z"/><path d="M43.875 32.062a.843.843 0 0 0-.844.844v6.751a.843.843 0 1 0 1.688 0v-6.751a.843.843 0 0 0-.844-.844z"/></symbol><symbol viewBox="0 0 54 54" id="icon11" xmlns="http://www.w3.org/2000/svg"><g clip-path="url(#eclip0)"><path d="M52.875 11.25H51.75V7.875c0-.62-.504-1.125-1.125-1.125H25.68l-.879-1.653a1.126 1.126 0 0 0-.993-.597H1.125C.504 4.5 0 5.004 0 5.625v42.75c0 .621.504 1.125 1.125 1.125h51.75c.621 0 1.125-.504 1.125-1.125v-36c0-.621-.504-1.125-1.125-1.125zM49.5 9v2.25H28.074L26.878 9H49.5zm2.25 38.25H2.25V6.75h20.881l.879 1.652.009.016 2.385 4.486c.196.367.578.597.994.597h24.351v33.748z"/><path d="M17.224 11.251h.026a1.125 1.125 0 0 0 0-2.25h-.026a1.125 1.125 0 0 0 0 2.25zm-2.107-1.126c0-.621-.504-1.125-1.126-1.125H5.625a1.125 1.125 0 0 0 0 2.25h8.366c.622 0 1.126-.503 1.126-1.125zm3.163 23.827c.337 0 .528-.36.528-.777 0-.36-.158-.753-.529-.753h-4.005c-.382 0-.765.18-.765.54v7.143c0 .36.382.54.765.54h4.005c.371 0 .529-.393.529-.754 0-.416-.191-.776-.529-.776h-3.015v-1.912h1.688c.37 0 .528-.36.528-.664 0-.36-.191-.686-.529-.686h-1.687v-1.901h3.015zm-10.214.562c0-.349.327-.675 1.125-.675.923 0 1.136.427 1.542.427.494 0 .697-.618.697-.922 0-.878-1.643-.99-2.24-.99-1.405 0-2.879.641-2.879 2.329 0 2.632 3.566 2.396 3.566 3.757 0 .54-.574.742-1.091.742-1.046 0-1.384-.832-1.913-.832-.427 0-.765.562-.765.945 0 .742 1.238 1.462 2.711 1.462 1.632 0 2.813-.877 2.813-2.497 0-2.835-3.566-2.62-3.566-3.746zm14.403-13.745c0-.371-.158-.777-.529-.777h-4.86c-.371 0-.529.406-.529.777 0 .427.192.799.53.799h1.552v6.108c0 .36.438.54.877.54s.878-.18.878-.54v-6.108h1.552c.337 0 .529-.372.529-.8zm20.033 13.228h1.553v6.108c0 .36.439.54.878.54.438 0 .877-.18.877-.54v-6.108h1.553c.337 0 .528-.371.528-.8 0-.37-.157-.775-.528-.775h-4.86c-.372 0-.529.405-.529.776 0 .428.191.799.529.799zm-7.085-1.036v7.144c0 .36.383.54.765.54h4.005c.371 0 .529-.394.529-.754 0-.416-.191-.776-.529-.776h-3.015v-1.912h1.688c.37 0 .528-.36.528-.664 0-.36-.19-.686-.528-.686h-1.688v-1.901h3.015c.338 0 .529-.36.529-.777 0-.36-.158-.753-.529-.753h-4.005c-.382 0-.765.18-.765.54zm-2.918-4.745c.439 0 .877-.18.877-.54v-2.43h1.114c1.553 0 2.768-.72 2.768-2.61v-.056c0-1.89-1.17-2.588-2.655-2.588h-2.329c-.394 0-.652.248-.652.53v7.154c0 .36.438.54.877.54zm.877-6.694h1.114c.63 0 1.013.36 1.013 1.125v.124c0 .765-.383 1.125-1.013 1.125h-1.114v-2.374zm-9.414 1.125v2.982c0 1.935 1.204 2.655 2.757 2.655 1.552 0 2.767-.72 2.767-2.655v-2.982c0-1.935-1.215-2.655-2.767-2.655-1.553 0-2.757.72-2.757 2.655zm3.77 0v2.982c0 .776-.383 1.124-1.013 1.124-.63 0-1.002-.348-1.002-1.124v-2.982c0-.776.372-1.125 1.002-1.125s1.012.35 1.012 1.125zm.105 10.303v7.155c0 .36.439.54.878.54.438 0 .877-.18.877-.54v-2.711h.742l1.542 2.992a.6.6 0 0 0 .562.327c.518 0 1.103-.473 1.103-.912a.37.37 0 0 0-.057-.202l-1.372-2.487c.787-.303 1.361-1.023 1.361-2.283 0-1.834-1.226-2.408-2.767-2.408h-2.33a.524.524 0 0 0-.539.529zm1.755 1.001h1.114c.63 0 1.012.259 1.012 1.047 0 .787-.382 1.046-1.012 1.046h-1.114V33.95zm-6.41 0c.956 0 .99.72 1 1.013.023.405.406.529.878.529.597 0 .878-.158.878-.833 0-1.429-1.215-2.239-2.824-2.239-1.474 0-2.7.72-2.7 2.656v2.98c0 1.936 1.226 2.656 2.7 2.656 1.609 0 2.824-.855 2.824-2.352 0-.674-.281-.832-.889-.832-.45 0-.832.112-.866.53-.034.438-.09 1.124-.99 1.124-.652 0-1.024-.36-1.024-1.125v-2.981c0-.765.372-1.126 1.013-1.126z"/></g><defs><clipPath id="eclip0"><path d="M0 0h54v54H0z"/></clipPath></defs></symbol><symbol viewBox="0 0 54 54" id="icon2" xmlns="http://www.w3.org/2000/svg"><path d="M5.064 27.849v2.533H3.378a.843.843 0 0 0-.844.844v21.929c0 .466.377.843.844.843h47.245a.843.843 0 0 0 .843-.843v-21.93a.843.843 0 0 0-.843-.843h-1.687v-2.533a.843.843 0 0 0-.844-.844H30.375c-1.385 0-2.605.68-3.375 1.715a4.199 4.199 0 0 0-3.375-1.715H5.908a.843.843 0 0 0-.844.844zm-.843 4.22h.843v17.71c0 .467.377.844.844.844h17.717c1.099 0 2.026.708 2.375 1.688H4.221V32.069zm45.558 0v20.242h-21.78a2.528 2.528 0 0 1 2.376-1.688h17.717a.843.843 0 0 0 .844-.843V32.07h.843zm-19.404-3.376h16.873v20.243H30.375a4.18 4.18 0 0 0-2.531.865V31.226a2.535 2.535 0 0 1 2.531-2.533zm-4.219 2.533v18.576a4.174 4.174 0 0 0-2.531-.865H6.752V28.693h16.873a2.535 2.535 0 0 1 2.531 2.533z"/><path d="M10.127 32.911h7.592a.843.843 0 1 0 0-1.687h-7.592a.843.843 0 1 0 0 1.687zm0 6.754h5.906a.843.843 0 1 0 0-1.688h-5.906a.843.843 0 1 0 0 1.688zm12.654-1.688h-3.373a.843.843 0 1 0 0 1.688h3.373a.843.843 0 1 0 0-1.688zm0-3.377h-9.28a.843.843 0 1 0 0 1.688h9.28a.843.843 0 1 0 0-1.687zm-12.654 1.688h.843a.843.843 0 1 0 0-1.687h-.843a.843.843 0 1 0 0 1.687zm12.654-5.064h-1.687a.843.843 0 1 0 0 1.687h1.687a.843.843 0 1 0 0-1.687zM10.127 43.041h8.435a.843.843 0 1 0 0-1.687h-8.435a.843.843 0 1 0 0 1.688zm12.654-1.687h-.843a.843.843 0 1 0 0 1.688h.843a.843.843 0 1 0 0-1.688zm-9.279 3.376h-3.375a.843.843 0 1 0 0 1.688h3.375a.843.843 0 1 0 0-1.688zm9.279 0h-5.904a.843.843 0 1 0 0 1.688h5.904a.843.843 0 1 0 0-1.688zm13.515-11.826h7.592a.843.843 0 1 0 0-1.687h-7.592a.843.843 0 1 0 0 1.688zm7.592 5.066H37.98a.843.843 0 1 0 0 1.688h5.907a.843.843 0 1 0 0-1.688zm-12.655 1.688h3.373a.843.843 0 1 0 0-1.688h-3.373a.843.843 0 1 0 0 1.688zm0-3.377h9.28a.843.843 0 1 0 0-1.687h-9.28a.843.843 0 1 0 0 1.687zm12.655-1.687h-.844a.843.843 0 1 0 0 1.687h.844a.843.843 0 1 0 0-1.687zm-12.655-1.69h1.688a.843.843 0 1 0 0-1.687h-1.688a.843.843 0 1 0 0 1.688zm12.655 8.443h-8.436a.843.843 0 1 0 0 1.688h8.436a.843.843 0 1 0 0-1.688zm-12.655 1.688h.844a.843.843 0 1 0 0-1.688h-.844a.843.843 0 1 0 0 1.688zm12.655 1.689h-3.375a.843.843 0 1 0 0 1.687h3.375a.843.843 0 1 0 0-1.687zm-12.655 1.687h5.905a.843.843 0 1 0 0-1.687h-5.905a.843.843 0 1 0 0 1.687zm-4.829-19.658a.841.841 0 0 0 1.192 0l1.654-1.654a12.58 12.58 0 0 0 10.406-12.441C39.656 5.679 33.98.002 27 .002c-6.979 0-12.656 5.677-12.656 12.656A12.58 12.58 0 0 0 24.75 25.099l1.654 1.654zM16.03 12.658C16.031 6.61 20.952 1.689 27 1.689c6.048 0 10.969 4.921 10.969 10.969 0 5.426-3.892 9.976-9.256 10.82a.85.85 0 0 0-.466.237L27 24.963l-1.248-1.248a.847.847 0 0 0-.466-.237 10.903 10.903 0 0 1-9.255-10.82z"/><path d="M23.368 9.525a.843.843 0 0 0-1.193 0l-2.532 2.531a.843.843 0 0 0 0 1.194l2.532 2.53a.841.841 0 0 0 1.193 0 .843.843 0 0 0 0-1.192l-1.935-1.935 1.935-1.935a.843.843 0 0 0 0-1.193zm7.25 6.255a.841.841 0 0 0 1.193 0l2.531-2.53a.843.843 0 0 0 0-1.194l-2.53-2.53a.843.843 0 1 0-1.194 1.192l1.935 1.935-1.935 1.935a.843.843 0 0 0 0 1.193zm-4.53 1.406l3.376-8.44a.844.844 0 0 0-1.568-.627L24.52 16.56a.844.844 0 0 0 1.568.626z"/></symbol><symbol viewBox="0 0 54 54" id="icon3" xmlns="http://www.w3.org/2000/svg"><path d="M6.753 16.03h16.033a.843.843 0 1 0 0-1.688H6.753a.843.843 0 1 0 0 1.687zm18.565 1.687H8.44a.843.843 0 1 0 0 1.688h16.877a.843.843 0 1 0 0-1.688zM20.257 37.98H8.44a.843.843 0 1 0 0 1.688h11.816a.843.843 0 1 0 0-1.688zm8.436-18.576h1.687a.843.843 0 1 0 0-1.687h-1.687a.843.843 0 1 0 0 1.688zM11.816 41.346H6.753a.843.843 0 1 0 0 1.687h5.063a.843.843 0 1 0 0-1.688zM29.541 25.31c0 .467.378.845.844.845h19.408a.843.843 0 1 0 0-1.688H30.385a.843.843 0 0 0-.844.844zm13.504 4.22a.843.843 0 1 0 0-1.688h-10.97a.843.843 0 1 0 0 1.688h10.97zm1.68 1.687h-8.433a.843.843 0 1 0 0 1.688h8.433a.843.843 0 1 0 0-1.688zm-11.808 0h-2.532a.843.843 0 1 0 0 1.688h2.532a.843.843 0 1 0 0-1.688z"/><path d="M53.156 21.092h-9.308v-9.204c.002-.026.015-.048.015-.074 0-.026-.013-.048-.015-.073v-1.614a2.534 2.534 0 0 0-2.531-2.532H2.53A2.534 2.534 0 0 0 0 10.127v1.687c0 .026.013.048.015.074v33.671c0 .467.377.844.844.844h2.508l.008.002.008-.002H43.02a.843.843 0 0 0 .844-.844v-9.273h9.293a.843.843 0 0 0 .844-.843V21.936a.843.843 0 0 0-.844-.844zM2.531 9.283h.86a.84.84 0 0 0-.838.844.847.847 0 0 0 1.692 0 .844.844 0 0 0-.844-.844h2.522a.84.84 0 0 0-.839.844.847.847 0 0 0 1.692 0 .844.844 0 0 0-.844-.844h2.522a.84.84 0 0 0-.838.844.847.847 0 0 0 1.691 0 .844.844 0 0 0-.843-.844h32.854c.465 0 .843.378.843.844v.843H1.688v-.843c0-.466.378-.844.843-.844zm-.828 3.375h.828v32.057h-.828V12.658zm40.472 32.057H4.219V12.658H42.16v8.434H27.008a.843.843 0 0 0-.844.844v13.507c0 .466.377.843.844.843h15.169v8.43h-.001zM52.313 34.6H27.85V22.78h24.462V34.6z"/><path d="M10.154 22.78a.843.843 0 1 0 0-1.688h-.01a.84.84 0 0 0-.838.844c0 .466.381.843.848.843zm0 3.373a.843.843 0 1 0 0-1.688h-.01a.84.84 0 0 0-.838.844c0 .467.381.844.848.844zm0 3.373a.843.843 0 1 0 0-1.687h-.01a.84.84 0 0 0-.838.843c0 .467.381.844.848.844zm0 3.374a.843.843 0 1 0 0-1.688h-.01a.84.84 0 0 0-.838.844c0 .466.381.843.848.843zm3.375-10.12a.843.843 0 1 0 0-1.688h-.01a.84.84 0 0 0-.838.844c0 .466.381.843.848.843zm3.375 0a.843.843 0 1 0 0-1.688h-.01a.84.84 0 0 0-.838.844c0 .466.381.843.848.843zm3.375-1.688h-.01a.84.84 0 0 0-.838.844.847.847 0 0 0 1.691 0 .844.844 0 0 0-.843-.844zm3.375 0h-.01a.84.84 0 0 0-.838.844.847.847 0 0 0 1.691 0 .844.844 0 0 0-.843-.844zm-13.5 15.201a.844.844 0 1 0 0-1.688h-.01a.84.84 0 0 0-.838.844c0 .467.381.844.848.844zm3.375 0a.844.844 0 1 0 0-1.688h-.01a.84.84 0 0 0-.838.844c0 .467.381.844.848.844zm3.375-1.688h-.01a.84.84 0 0 0-.838.844.847.847 0 0 0 1.691 0 .843.843 0 0 0-.843-.843zm3.375 0h-.01a.84.84 0 0 0-.838.844.847.847 0 0 0 1.691 0 .843.843 0 0 0-.843-.843zm3.375 0h-.01a.84.84 0 0 0-.838.844.847.847 0 0 0 1.691 0 .843.843 0 0 0-.843-.843zm-6.777-5.077h.842v.842a.843.843 0 1 0 1.687 0v-.842h.844a.843.843 0 1 0 0-1.688h-.844v-.843a.843.843 0 1 0-1.687 0v.843h-.842a.843.843 0 1 0 0 1.688z"/></symbol><symbol viewBox="0 0 54 54" id="icon4" xmlns="http://www.w3.org/2000/svg"><g clip-path="url(#hclip0)"><path d="M13.079 34.597a2.956 2.956 0 0 0 2.953-2.953 2.956 2.956 0 0 0-2.953-2.953 2.956 2.956 0 0 0-2.953 2.953 2.956 2.956 0 0 0 2.953 2.953zm0-4.219c.698 0 1.266.568 1.266 1.266 0 .698-.568 1.266-1.266 1.266a1.267 1.267 0 0 1-1.266-1.266c0-.698.568-1.266 1.266-1.266zm35.015 22.778v-3.375a.843.843 0 0 0-.844-.843.844.844 0 0 1-.844-.844.843.843 0 0 0-.843-.844H8.437a.843.843 0 0 0-.843.844.844.844 0 0 1-.844.843.843.843 0 0 0-.844.844v3.375a.843.843 0 1 0 1.688 0V50.47a2.522 2.522 0 0 0 1.531-1.532h35.749a2.522 2.522 0 0 0 1.531 1.532v2.687a.843.843 0 1 0 1.689 0z"/><path d="M.844 44.719h.844v8.437a.843.843 0 1 0 1.687 0V44.72h47.25v8.437a.843.843 0 1 0 1.688 0V44.72h.843a.843.843 0 0 0 .844-.844V40.5a.843.843 0 0 0-.844-.844h-.843v-5.062a5.914 5.914 0 0 0-5.907-5.907l-2.531.002v-1.37c3.02-1.754 5.062-5.015 5.063-8.752v-7.598a5.067 5.067 0 0 0-4.22-4.987V3.375a.843.843 0 0 0-.843-.844h-6.75c-.004 0-.008.003-.011.003-4.647.006-8.426 3.787-8.426 8.435v7.595c0 3.738 2.04 7 5.062 8.754v1.371l-2.53-.002h-.001a5.914 5.914 0 0 0-5.907 5.907v1.69h-.842V24.473a2.534 2.534 0 0 0-2.532-2.531H4.22a2.534 2.534 0 0 0-2.532 2.531v14.342c0 .297.061.578.156.842h-1A.843.843 0 0 0 0 40.5v3.375c0 .467.377.844.844.844zM37.125 4.22l.008-.001h5.898V6.75c0 .467.377.844.844.844a3.378 3.378 0 0 1 3.375 3.375v2.182l-1.091-1.091c-.012-.012-.026-.016-.038-.025-.045-.04-.094-.067-.144-.096-.047-.026-.089-.055-.138-.072-.05-.018-.101-.022-.153-.03-.055-.008-.108-.019-.163-.017-.052.003-.099.018-.15.029-.056.014-.113.025-.167.051-.014.007-.03.006-.043.014-.03.016-2.986 1.586-6.35 1.586-3.349 0-6.322-1.571-6.351-1.587-.015-.008-.03-.007-.043-.014a.89.89 0 0 0-.167-.05c-.051-.013-.1-.028-.153-.03-.052-.002-.101.009-.154.016-.055.008-.11.013-.162.031-.047.017-.088.046-.133.071-.052.03-.101.057-.146.097-.012.01-.026.014-.038.025l-1.091 1.092v-2.182a6.757 6.757 0 0 1 6.75-6.749zm-6.75 14.344v-3.027l1.86-1.86c1.104.503 3.675 1.51 6.578 1.51 2.902 0 5.473-1.007 6.577-1.51l1.86 1.86v3.027c0 4.652-3.785 8.436-8.438 8.436-4.652 0-8.437-3.784-8.437-8.436zm8.438 10.123a10.06 10.06 0 0 0 3.374-.59v1.087l-1.071 1.07-2.037-.679c-.03-.01-.06-.005-.092-.012a.802.802 0 0 0-.175-.02.87.87 0 0 0-.174.02c-.03.007-.06.001-.092.012l-2.037.68-1.072-1.071v-1.087c1.058.375 2.19.59 3.376.59zM27 34.594a4.224 4.224 0 0 1 4.219-4.219l3.025.002 1.44 1.438c.014.014.032.018.046.03.055.05.116.088.183.121.027.014.052.03.08.04a.834.834 0 0 0 .288.056.843.843 0 0 0 .267-.043l2.264-.755 2.265.756a.868.868 0 0 0 .267.042c.1 0 .196-.021.29-.055.028-.011.052-.027.08-.04a.797.797 0 0 0 .182-.122c.014-.013.032-.017.045-.03l1.44-1.438 3.025-.002a4.224 4.224 0 0 1 4.219 4.219v5.062H32.752c.093-.264.154-.545.154-.84v-1.688a.843.843 0 0 0-.843-.843H27v-1.691zm4.219 3.378v.844c0 .46-.37.831-.827.84h-6.077c.093-.263.154-.541.154-.835l.001-.007v-.842h6.749zm-27-14.344h17.72c.465 0 .843.378.843.844v14.344c0 .46-.37.831-.828.84H4.211a.843.843 0 0 1-.835-.842V24.472c0-.466.378-.844.844-.844zM1.688 41.344h1.68l.008.001h17.71l.008.002h9.282c.012 0 .021-.003.033-.003h21.044c.006 0 .01.003.017.003.006 0 .01-.003.017-.003h.827v1.687H1.687v-1.687z"/><path d="M38.838 38.813a.844.844 0 1 0 0-1.688h-.009a.84.84 0 0 0-.838.844c0 .466.381.843.847.843zm0-3.375a.844.844 0 1 0 0-1.688h-.009a.84.84 0 0 0-.838.844c0 .466.381.843.847.843zM12.262 19.361l.641.642a.841.841 0 0 0 1.194 0l.772-.773a9.644 9.644 0 0 0 7.912-9.527c0-5.35-4.353-9.703-9.703-9.703S3.375 4.353 3.375 9.703a9.687 9.687 0 0 0 8.887 9.659zm.816-17.674c4.42 0 8.016 3.597 8.016 8.016a7.966 7.966 0 0 1-6.764 7.907.85.85 0 0 0-.466.237l-.364.366-.268-.268a.846.846 0 0 0-.555-.247 8.001 8.001 0 0 1-7.614-7.995c0-4.42 3.596-8.015 8.015-8.015z"/><path d="M15.857 12.399a.841.841 0 0 0 1.193 0l2.099-2.1c.003-.003.007-.003.01-.006a.84.84 0 0 0 .247-.598.842.842 0 0 0-.247-.598c-.003-.004-.007-.004-.01-.007l-2.1-2.101a.843.843 0 1 0-1.192 1.193l1.51 1.513-1.51 1.51a.843.843 0 0 0 0 1.194zm-6.75 0a.842.842 0 0 0 1.193 0 .843.843 0 0 0 0-1.193L8.789 9.695l1.51-1.513a.843.843 0 1 0-1.192-1.193l-2.1 2.1c-.003.004-.006.004-.01.008a.843.843 0 0 0 0 1.196c.004.003.007.003.01.007l2.1 2.099zm2.44 1.891a.843.843 0 0 0 1.066-.533l2.532-7.597a.843.843 0 1 0-1.601-.534l-2.531 7.597a.844.844 0 0 0 .534 1.068z"/></g><defs><clipPath id="hclip0"><path d="M0 0h54v54H0z"/></clipPath></defs></symbol><symbol viewBox="0 0 54 54" id="icon5" xmlns="http://www.w3.org/2000/svg"><path d="M2.848 0l4.668 48.674L27.045 54l19.529-5.326L51.243 0H2.848zm40.76 46.176l-16.563 4.518-16.564-4.518L6.358 3.19h41.374l-4.123 42.986z"/><path d="M13.356 29.102h18.801l-.31 4.845-4.68 1.527-4.928-1.522V31.31h-9.051v9.093l13.977 4.347 13.024-3.788 1.697-20.557-20.457-.235-.236-2.115h20.763V9.33H11.149l2.207 19.772zm25.41-16.582v2.347l-21.14-.001.947 8.462 19.852.228-1.234 14.957-9.995 2.907-10.818-3.364V34.5h2.671v1.803l8.145 2.517 7.697-2.512.667-10.396H16.21L14.714 12.52h24.053z"/></symbol><symbol viewBox="0 0 54 54" id="icon6" xmlns="http://www.w3.org/2000/svg"><path d="M50.182.547A1.691 1.691 0 0 0 48.937 0H5.062c-.473 0-.925.2-1.245.547a1.701 1.701 0 0 0-.436 1.286l3.996 45.562a1.686 1.686 0 0 0 1.222 1.478l17.941 5.063a1.75 1.75 0 0 0 .918.003l17.935-5.059a1.694 1.694 0 0 0 1.222-1.478l4.003-45.566a1.678 1.678 0 0 0-.436-1.29zm-6.824 45.397L27 50.557 10.637 45.94 6.905 3.376h40.19l-3.737 42.569z"/><path d="M40.044 10.658a1.68 1.68 0 0 0-1.232-.533H15.187a1.688 1.688 0 0 0 0 3.375H37.01l-1.495 22.383L27 38.721l-8.438-2.811v-2.16a1.688 1.688 0 0 0-3.375 0v3.375c0 .726.466 1.37 1.154 1.603l10.125 3.375a1.7 1.7 0 0 0 1.066-.003l10.126-3.375a1.686 1.686 0 0 0 1.15-1.489l1.688-25.312a1.7 1.7 0 0 0-.452-1.266z"/><path d="M37.9 23.625H15.593a1.688 1.688 0 0 0 0 3.375h22.309a1.688 1.688 0 0 0 0-3.375z"/></symbol><symbol viewBox="0 0 54 54" id="icon7" xmlns="http://www.w3.org/2000/svg"><path d="M29.514 3.373H2.536a2.534 2.534 0 0 0-2.53 2.532v43.878c0 .466.376.844.843.844h30.353a.843.843 0 0 0 .844-.844V5.905a2.534 2.534 0 0 0-2.532-2.532zM1.693 8.436h28.665v40.503H1.693V8.436zm.843-3.375h.86a.84.84 0 0 0-.838.844.847.847 0 0 0 1.692 0 .844.844 0 0 0-.844-.844h2.52a.84.84 0 0 0-.838.844.847.847 0 0 0 1.692 0 .844.844 0 0 0-.844-.844H8.46a.84.84 0 0 0-.839.844.847.847 0 0 0 1.692 0 .844.844 0 0 0-.844-.844h21.044c.466 0 .844.378.844.844v.843H1.693v-.843c0-.466.378-.844.843-.844z"/><path d="M4.21 34.59c0 .467.377.844.844.844h21.93a.843.843 0 0 0 .843-.844V24.47a.843.843 0 0 0-.844-.844H5.054a.843.843 0 0 0-.844.844v3.027l-1.442 1.441a.841.841 0 0 0 0 1.193l1.442 1.44v3.02zm1.44-6.148a.842.842 0 0 0 .248-.597v-2.532h20.241v8.434H5.898V31.22a.84.84 0 0 0-.247-.596l-1.092-1.091 1.092-1.092z"/><path d="M8.43 29.108h15.178a.843.843 0 1 0 0-1.688H8.43a.843.843 0 1 0 0 1.688zm0 2.531h7.588a.843.843 0 1 0 0-1.688H8.429a.843.843 0 1 0 0 1.688zm20.838-16.2l-1.442-1.441V10.97a.843.843 0 0 0-.844-.844H5.054a.843.843 0 0 0-.844.843v10.122c0 .467.377.844.844.844h21.928a.843.843 0 0 0 .843-.844v-3.02l1.442-1.44a.842.842 0 0 0 .001-1.193zm-2.883 1.688a.842.842 0 0 0-.247.596v2.525H5.898v-8.434h20.24v2.533a.84.84 0 0 0 .247.597l1.092 1.091-1.092 1.091z"/><path d="M23.608 13.922H8.43a.843.843 0 1 0 0 1.687h15.18a.843.843 0 1 0 0-1.687zm-7.59 2.531H8.429a.843.843 0 1 0 0 1.688h7.589a.843.843 0 1 0 0-1.688zM5.01 44.717h21.938a.843.843 0 0 0 .843-.839l.037-5.907a.844.844 0 0 0-.844-.849H5.044a.844.844 0 0 0-.843.839l-.035 5.907a.844.844 0 0 0 .844.849zm.873-5.907h20.252l-.026 4.22H5.859l.024-4.22zm8.438 6.755H5.046a.843.843 0 1 0 0 1.688h9.274a.843.843 0 1 0 .001-1.688zm12.683 0h-.01a.84.84 0 0 0-.838.844.847.847 0 0 0 1.692 0 .843.843 0 0 0-.844-.844zm-2.531 0h-.01a.84.84 0 0 0-.838.844.847.847 0 0 0 1.692 0 .843.843 0 0 0-.844-.844zm20.241-15.149v-2.73a2.527 2.527 0 0 0 1.69-2.378 2.534 2.534 0 0 0-2.53-2.53 2.534 2.534 0 0 0-2.532 2.53c0 1.098.706 2.024 1.684 2.375v2.733c-5.189.432-9.281 4.784-9.281 10.082v9.282c0 .466.377.843.844.843h18.56a.843.843 0 0 0 .844-.843l.002-9.282c0-5.297-4.091-9.65-9.281-10.082zm-.84-5.952a.844.844 0 1 1-.001 1.688.844.844 0 0 1 0-1.688zM39.655 48.09h1.686v.846h-1.686v-.846zm5.061 0v.846H43.03v-.846h1.687zm3.373 0v.846h-1.685v-.846h1.685zm4.216.846h-2.528v-1.69a.843.843 0 0 0-.844-.843h-10.12a.843.843 0 0 0-.844.844v1.689h-2.537v-8.438c0-4.652 3.785-8.437 8.438-8.437 4.652 0 8.437 3.785 8.437 8.437l-.001 8.438z"/><path d="M45.56 40.497a2.534 2.534 0 0 0 2.532 2.532 2.534 2.534 0 0 0 2.531-2.532 2.534 2.534 0 0 0-2.53-2.53 2.534 2.534 0 0 0-2.532 2.53zm3.376 0a.844.844 0 1 1-1.688 0 .844.844 0 0 1 1.688 0zm-9.281-2.531a2.534 2.534 0 0 0-2.532 2.531 2.534 2.534 0 0 0 2.532 2.532 2.534 2.534 0 0 0 2.53-2.532 2.534 2.534 0 0 0-2.53-2.53zm0 3.375a.844.844 0 1 1 0-1.688.844.844 0 0 1 0 1.688zm6.148-26.403a.841.841 0 0 0 1.193 0l1.678-1.68.008-.004a.843.843 0 0 0 0-1.196l-.008-.005-1.678-1.68a.843.843 0 1 0-1.193 1.193l1.088 1.09-1.088 1.089a.844.844 0 0 0 0 1.193zm-5.061.002a.842.842 0 0 0 1.193 0 .843.843 0 0 0 0-1.194l-1.09-1.09 1.09-1.09a.843.843 0 1 0-1.193-1.193l-1.68 1.68-.007.006a.843.843 0 0 0 0 1.196c.002.002.005.002.007.005l1.68 1.68zm2.08 1.912a.845.845 0 0 0 1.023-.614l1.686-6.752a.843.843 0 1 0-1.637-.408l-1.687 6.752a.844.844 0 0 0 .615 1.022z"/><path d="M43.87 21.094c4.652 0 8.437-3.785 8.437-8.438 0-4.652-3.785-8.437-8.437-8.437-4.652 0-8.438 3.785-8.438 8.437 0 4.653 3.785 8.438 8.438 8.438zm0-15.188a6.758 6.758 0 0 1 6.75 6.75 6.758 6.758 0 0 1-6.75 6.75 6.758 6.758 0 0 1-6.75-6.75 6.758 6.758 0 0 1 6.75-6.75z"/></symbol><symbol viewBox="0 0 54 54" id="icon8" xmlns="http://www.w3.org/2000/svg"><path d="M1.267 54h33.747a.843.843 0 0 0 .844-.844v-1.689h1.689a.843.843 0 0 0 .844-.844V5.906a.853.853 0 0 0-.248-.597L33.082.247A.832.832 0 0 0 32.484 0H3.8a.844.844 0 0 0-.844.844v1.689H1.267a.844.844 0 0 0-.843.844v49.78c0 .466.377.843.843.843zM33.328 2.88l2.182 2.183h-2.182V2.88zM4.644 1.689h26.997v4.218c0 .466.377.844.843.844h4.22v43.03H4.643V1.687zM2.111 4.22h.845v46.403c0 .467.378.844.844.844h30.37v.846H2.111V4.22z"/><path d="M15.611 29.535a.843.843 0 0 0-.844-.844 2.535 2.535 0 0 1-2.53-2.533V22.78c0-.65-.255-1.238-.659-1.687a2.515 2.515 0 0 0 .658-1.688V16.03a2.534 2.534 0 0 1 2.531-2.531.844.844 0 1 0 0-1.688 4.223 4.223 0 0 0-4.218 4.22v3.374a.845.845 0 0 1-.844.844.844.844 0 1 0 0 1.688c.466 0 .844.378.844.843v3.377a4.224 4.224 0 0 0 4.218 4.22.843.843 0 0 0 .844-.843zm16.031-9.285a.845.845 0 0 1-.843-.844v-3.375a4.224 4.224 0 0 0-4.22-4.218.843.843 0 1 0 0 1.687 2.534 2.534 0 0 1 2.532 2.531v3.375c0 .65.254 1.239.658 1.688a2.514 2.514 0 0 0-.658 1.687v3.377a2.535 2.535 0 0 1-2.531 2.533.843.843 0 1 0 0 1.687 4.225 4.225 0 0 0 4.219-4.22V22.78c0-.465.378-.843.843-.843a.844.844 0 1 0 0-1.688zm-14.322 0h-.009a.84.84 0 0 0-.838.844.847.847 0 0 0 1.691 0 .844.844 0 0 0-.844-.844zm3.379 1.688a.844.844 0 0 0 0-1.688h-.01a.84.84 0 0 0-.838.844c0 .465.381.843.848.843zm4.221-.844a.844.844 0 0 0-.844-.844h-.01a.84.84 0 0 0-.838.844c0 .465.381.843.848.843a.844.844 0 0 0 .843-.843zM16.455 39.66a.843.843 0 0 0-.844.843.844.844 0 0 1-1.687 0v-3.375a.844.844 0 0 1 1.685 0 .843.843 0 1 0 1.688 0 2.533 2.533 0 0 0-2.53-2.53 2.534 2.534 0 0 0-2.53 2.53v3.375a2.534 2.534 0 0 0 2.53 2.532 2.534 2.534 0 0 0 2.532-2.532.843.843 0 0 0-.844-.843zm10.125-3.375c.465 0 .842.378.842.843a.843.843 0 1 0 1.687 0 2.533 2.533 0 0 0-2.53-2.53 2.534 2.534 0 0 0-2.53 2.53c0 1.365 1.243 1.987 2.151 2.443.714.357 1.219.634 1.219.932a.844.844 0 0 1-1.688 0 .843.843 0 1 0-1.688 0 2.534 2.534 0 0 0 2.532 2.532 2.534 2.534 0 0 0 2.531-2.532c0-1.364-1.244-1.987-2.152-2.442-.713-.357-1.218-.634-1.218-.933 0-.465.378-.843.844-.843zm-5.912 0c.465 0 .842.378.842.843a.843.843 0 1 0 1.687 0 2.533 2.533 0 0 0-2.53-2.53 2.534 2.534 0 0 0-2.53 2.53c0 1.365 1.243 1.987 2.151 2.443.714.357 1.218.634 1.218.932a.844.844 0 0 1-1.687 0 .843.843 0 1 0-1.688 0 2.534 2.534 0 0 0 2.532 2.532 2.534 2.534 0 0 0 2.53-2.532c0-1.364-1.243-1.987-2.15-2.442-.715-.357-1.22-.634-1.22-.933 0-.465.379-.843.845-.843zm20.254 3.159v3.607a.843.843 0 1 0 1.687 0v-3.374h.844v.839a.843.843 0 1 0 1.688 0v-.839h.843v6.752a.843.843 0 1 0 1.688 0v-6.752h.844v1.684a.843.843 0 1 0 1.687 0v-1.684h.844v3.374a.843.843 0 1 0 1.687 0v-3.61c.502-.293.842-.83.842-1.451V27.86a3.378 3.378 0 0 0-3.358-3.373c-.006 0-.01-.003-.017-.003h-.843V9.295a2.534 2.534 0 0 0-2.532-2.532 2.534 2.534 0 0 0-2.53 2.532v15.189h-.845a3.38 3.38 0 0 0-3.376 3.377v10.13c0 .622.343 1.16.847 1.453zm.84-1.454v-.844H51.89v.844H41.762zm10.127-2.532H41.762v-5.08H51.89v5.08zM45.983 9.297c0-.001 0-.001 0 0a.845.845 0 0 1 1.687-.001v15.189h-1.687V9.296zM43.45 26.17h6.742l.008.002a1.69 1.69 0 0 1 1.688 1.688v.83H41.762v-.83c0-.932.759-1.69 1.69-1.69z"/></symbol><symbol viewBox="0 0 54 54" id="icon9" xmlns="http://www.w3.org/2000/svg"><path d="M3.621 47l6.753 6.752c.05.05.11.076.166.11.036.022.066.053.106.07a.835.835 0 0 0 .324.067h38.813a.843.843 0 0 0 .844-.845V24.473a.837.837 0 0 0-.248-.597l-6.52-6.518V2.533A2.535 2.535 0 0 0 41.326 0H12.644a2.535 2.535 0 0 0-2.53 2.532v14.344H4.216a.846.846 0 0 0-.843.84v28.686a.835.835 0 0 0 .248.597zm38.55-41.936V23.63H14.33V5.064h27.84zM12.644 23.63h-.843V5.064h.843V23.63zm-2.516 1.195V51.12l-5.067-5.066V19.758l5.067 5.066zM48.94 52.31H11.816V25.317h37.123V52.31zm-1.193-28.682h-3.888v-3.886l3.888 3.886zM12.644 1.69h28.683c.466 0 .844.378.844.844v.844H11.802v-.844a.844.844 0 0 1 .842-.845zm-2.53 20.734l-3.86-3.858h3.86v3.858z"/><path d="M14.358 2.533a.844.844 0 0 0-.844-.844h-.009a.84.84 0 0 0-.839.844c0 .466.382.844.848.844a.845.845 0 0 0 .844-.844zm2.532 0a.844.844 0 0 0-.844-.844h-.01a.84.84 0 0 0-.838.844c0 .466.381.844.848.844a.845.845 0 0 0 .843-.844zm2.53 0a.844.844 0 0 0-.843-.844h-.01a.84.84 0 0 0-.838.844.847.847 0 0 0 1.692 0zM16.863 8.44h19.412a.844.844 0 1 0 0-1.688H16.863a.844.844 0 1 0 0 1.687zm16.88 2.53a.844.844 0 0 0-.843-.843H18.55a.844.844 0 1 0 0 1.687H32.9a.844.844 0 0 0 .843-.844zm2.532-.843a.844.844 0 1 0 0 1.687h.843a.844.844 0 1 0 0-1.687h-.843zm-16.881 7.59c0 .466.378.844.844.844h18.568a.844.844 0 1 0 0-1.688H20.238a.844.844 0 0 0-.844.844zm.844-4.22a.844.844 0 1 0 0 1.687h6.743a.844.844 0 1 0 0-1.687h-6.743zm14.349 6.75H20.238a.844.844 0 1 0 0 1.687h14.349a.844.844 0 1 0 0-1.687zm-4.227 29.53c6.048 0 10.968-4.92 10.968-10.969 0-6.048-4.92-10.968-10.968-10.968s-10.97 4.92-10.97 10.968 4.92 10.97 10.969 10.97zm0-20.25c5.117 0 9.281 4.164 9.281 9.281 0 5.118-4.164 9.282-9.281 9.282-5.117 0-9.281-4.164-9.281-9.282 0-5.117 4.163-9.28 9.28-9.28z"/><path d="M26.143 42.184a.843.843 0 0 0 .596-1.44l-1.934-1.935 1.934-1.935a.843.843 0 1 0-1.193-1.194l-2.531 2.533a.843.843 0 0 0 0 1.193l2.531 2.53a.844.844 0 0 0 .597.248zm7.847-.247a.841.841 0 0 0 1.194 0l2.53-2.531a.843.843 0 0 0 0-1.193l-2.53-2.532a.843.843 0 1 0-1.194 1.193l1.935 1.935-1.934 1.935a.844.844 0 0 0 0 1.193zm-5.627 1.876a.844.844 0 0 0 1.097-.47l3.376-8.441a.844.844 0 0 0-1.567-.626l-3.377 8.44a.846.846 0 0 0 .47 1.097z"/></symbol></svg>